<?xml version="1.0" encoding="iso-8859-1"?>
<!-- Generator: Adobe Illustrator 19.0.0, SVG Export Plug-In . SVG Version: 6.00 Build 0)  -->
<svg version="1.1" id="Capa_1" xmlns="http://www.w3.org/2000/svg" xmlns:xlink="http://www.w3.org/1999/xlink" x="0px" y="0px"
	 viewBox="0 0 512 512" style="enable-background:new 0 0 512 512;" xml:space="preserve">
<g>
	<g>
		<path d="M496,32H16C7.168,32,0,39.136,0,48v64c0,8.832,7.168,16,16,16h16v224c0,17.632,14.368,32,32,32h176v39.424l-40.864,27.264
			c-7.36,4.896-9.344,14.816-4.448,22.176c4.864,7.328,14.784,9.312,22.176,4.448L256,451.232l39.136,26.08
			c2.72,1.792,5.792,2.688,8.864,2.688c5.184,0,10.24-2.496,13.344-7.136c4.896-7.36,2.912-17.28-4.448-22.176L272,423.424V384h176
			c17.632,0,32-14.368,32-32V128h16c8.832,0,16-7.168,16-16V48C512,39.136,504.832,32,496,32z M448,352H64V128h384V352z M480,96H32
			V64h448V96z"/>
	</g>
</g>
<g>
</g>
<g>
</g>
<g>
</g>
<g>
</g>
<g>
</g>
<g>
</g>
<g>
</g>
<g>
</g>
<g>
</g>
<g>
</g>
<g>
</g>
<g>
</g>
<g>
</g>
<g>
</g>
<g>
</g>
</svg>
