<svg id="Capa_1" enable-background="new 0 0 512 512" height="512" viewBox="0 0 512 512" width="512" xmlns="http://www.w3.org/2000/svg"><g><path d="m446 52.5h-80.428c-4.143 0-7.5 3.358-7.5 7.5s3.357 7.5 7.5 7.5h80.428c28.948 0 52.5 23.551 52.5 52.5v247c0 28.948-23.552 52.5-52.5 52.5h-378.5c-28.948 0-52.5-23.552-52.5-52.5v-247c0-28.949 23.552-52.5 52.5-52.5h267.984c4.143 0 7.5-3.358 7.5-7.5s-3.357-7.5-7.5-7.5h-41.984v-15c0-20.678-16.822-37.5-37.5-37.5s-37.5 16.822-37.5 37.5v15h-151c-37.22 0-67.5 30.28-67.5 67.5v247c0 37.22 30.28 67.5 67.5 67.5h7.415l-12.266 21.245c-5.009 8.674-6.34 18.78-3.747 28.456 2.593 9.675 8.798 17.762 17.473 22.77 5.892 3.401 12.329 5.03 18.688 5.029 12.969-.001 25.601-6.739 32.538-18.755l33.917-58.745h56.982v28c0 20.678 16.822 37.5 37.5 37.5s37.5-16.822 37.5-37.5v-28h56.982l33.917 58.745c6.939 12.018 19.569 18.755 32.539 18.755 6.357 0 12.798-1.629 18.688-5.029 8.675-5.008 14.88-13.095 17.473-22.77 2.593-9.676 1.262-19.782-3.747-28.456l-12.267-21.245h8.915c37.22 0 66-30.28 66-67.5v-247c0-37.22-28.78-67.5-66-67.5zm-212.5-15c0-12.407 10.094-22.5 22.5-22.5s22.5 10.093 22.5 22.5v15h-45zm-118.89 448.245c-3.005 5.205-7.856 8.928-13.662 10.483-5.808 1.555-11.87.755-17.073-2.248-5.205-3.005-8.928-7.857-10.483-13.662s-.757-11.868 2.248-17.073l16.595-28.745h51.962zm163.89-23.245c0 12.406-10.094 22.5-22.5 22.5s-22.5-10.094-22.5-22.5v-28h45zm160.108 17.818c-1.556 5.805-5.278 10.657-10.483 13.662-5.204 3.005-11.268 3.8-17.073 2.248-5.806-1.556-10.657-5.278-13.662-10.483l-29.587-51.245h51.962l16.596 28.745c3.004 5.205 3.803 11.269 2.247 17.073z"/><path d="m67.5 279.5c-4.143 0-7.5 3.357-7.5 7.5v80c0 4.143 3.357 7.5 7.5 7.5h378.5c4.143 0 7.5-3.357 7.5-7.5v-247c0-4.142-3.357-7.5-7.5-7.5h-378.5c-4.143 0-7.5 3.358-7.5 7.5v137c0 4.143 3.357 7.5 7.5 7.5s7.5-3.357 7.5-7.5v-129.5h363.5v232h-363.5v-72.5c0-4.143-3.357-7.5-7.5-7.5z"/><path d="m135.664 270.074c1.174 2.607 3.79 4.426 6.836 4.426 4.143 0 7.5-3.357 7.5-7.5v-45c0-4.143-3.357-7.5-7.5-7.5-3.046 0-5.662 1.818-6.836 4.426-4.563-2.805-9.927-4.426-15.664-4.426-16.542 0-30 13.458-30 30s13.458 30 30 30c5.737 0 11.102-1.621 15.664-4.426zm-30.664-25.574c0-8.271 6.729-15 15-15s15 6.729 15 15-6.729 15-15 15-15-6.729-15-15z"/><path d="m161.337 312.268c0 8.014 3.12 15.547 8.786 21.214 5.667 5.666 13.2 8.786 21.214 8.786h8c4.143 0 7.5-3.357 7.5-7.5s-3.357-7.5-7.5-7.5h-8c-4.007 0-7.773-1.561-10.606-4.394-.941-.94-1.742-1.984-2.392-3.106h35.498c4.143 0 7.5-3.357 7.5-7.5 0-16.581-13.418-30-30-30-16.583 0-30 13.417-30 30zm30-15c5.531 0 10.386 2.989 12.997 7.5h-25.995c2.574-4.448 7.392-7.5 12.998-7.5z"/><path d="m256.673 255.75c-4.143 0-7.5 3.357-7.5 7.5v37.5c0 4.143 3.357 7.5 7.5 7.5s7.5-3.357 7.5-7.5v-37.5c0-4.143-3.358-7.5-7.5-7.5z"/><circle cx="256.673" cy="240.75" r="7.5"/><path d="m290.01 309.768c0 16.542 13.458 30 30 30s30-13.458 30-30-13.458-30-30-30-30 13.458-30 30zm30-15c8.271 0 15 6.729 15 15s-6.729 15-15 15-15-6.729-15-15 6.728-15 15-15z"/><path d="m370.847 247.268c-4.143 0-7.5 3.357-7.5 7.5v22.5c0 16.542 13.458 30 30 30s30-13.458 30-30v-22.5c0-4.143-3.357-7.5-7.5-7.5s-7.5 3.357-7.5 7.5v22.5c0 8.271-6.729 15-15 15s-15-6.729-15-15v-22.5c0-4.143-3.358-7.5-7.5-7.5z"/><path d="m201.051 189.06v-12c0-4.143-3.357-7.5-7.5-7.5s-7.5 3.357-7.5 7.5v12c0 4.143 3.357 7.5 7.5 7.5s7.5-3.358 7.5-7.5z"/><path d="m325.948 189.06v-12c0-4.143-3.357-7.5-7.5-7.5s-7.5 3.357-7.5 7.5v12c0 4.143 3.357 7.5 7.5 7.5s7.5-3.358 7.5-7.5z"/><path d="m278.118 193.631c2.721-3.122 2.396-7.86-.727-10.582s-7.86-2.396-10.582.727c-2.729 3.132-6.669 4.928-10.81 4.928s-8.08-1.796-10.81-4.928c-2.723-3.122-7.46-3.447-10.582-.727-3.123 2.722-3.447 7.46-.727 10.582 5.579 6.401 13.641 10.072 22.118 10.072s16.541-3.671 22.12-10.072z"/></g></svg>