<?xml version="1.0" encoding="iso-8859-1"?>
<!-- Generator: Adobe Illustrator 19.0.0, SVG Export Plug-In . SVG Version: 6.00 Build 0)  -->
<svg version="1.1" id="Capa_1" xmlns="http://www.w3.org/2000/svg" xmlns:xlink="http://www.w3.org/1999/xlink" x="0px" y="0px"
	 viewBox="0 0 512 512" style="enable-background:new 0 0 512 512;" xml:space="preserve">
<g>
	<g>
		<path d="M502,47.031H321.348c-25.909,0-49.744,11.801-65.348,31.604c-15.604-19.803-39.44-31.604-65.348-31.604H10
			c-5.523,0-10,4.478-10,10v397.938c0,5.522,4.477,10,10,10h492c5.523,0,10-4.478,10-10V57.031
			C512,51.509,507.523,47.031,502,47.031z M20,444.969v-20.063h170.652c17.9,0,34.5,7.409,46.281,20.063H20z M246,425.873
			c-14.961-13.319-34.485-20.967-55.348-20.967H20V299.301V67.031h170.652c23.172,0,44.17,12.413,55.348,32.553V425.873z
			 M492,444.969H275.067c11.781-12.653,28.381-20.063,46.281-20.063H492V444.969z M492,299.301v105.605H321.348
			c-20.863,0-40.387,7.647-55.348,20.967V99.584c11.178-20.14,32.176-32.553,55.348-32.553H492V299.301z"/>
	</g>
</g>
<g>
	<g>
		<path d="M202.206,158.67c-10.827-28.398-38.265-47.638-69.206-47.639c-30.94,0.001-58.378,19.24-69.206,47.638
			c-12.851,2.001-22.713,13.089-22.713,26.426s9.862,24.425,22.713,26.426c10.827,28.398,38.265,47.638,69.206,47.638
			c30.941,0,58.379-19.239,69.206-47.639c12.85-2.001,22.712-13.089,22.712-26.425S215.055,160.671,202.206,158.67z
			 M198.033,191.842c-0.418,0-0.854-0.041-1.297-0.123c-5.138-0.948-10.139,2.223-11.477,7.272
			c-6.269,23.65-27.759,40.167-52.259,40.167s-45.99-16.518-52.259-40.167c-1.18-4.45-5.203-7.438-9.657-7.438
			c-0.601,0-1.209,0.054-1.819,0.166c-0.443,0.082-0.879,0.123-1.297,0.123c-3.797,0-6.886-3.026-6.886-6.747
			c0-3.721,3.089-6.747,6.886-6.747c0.418,0,0.854,0.041,1.297,0.123c5.136,0.942,10.138-2.223,11.477-7.272
			c6.27-23.648,27.759-40.166,52.258-40.167c24.5,0.001,45.99,16.518,52.259,40.167c1.338,5.05,6.335,8.219,11.477,7.272
			c0.443-0.082,0.879-0.123,1.297-0.123c3.797,0,6.886,3.026,6.886,6.747C204.919,188.816,201.83,191.842,198.033,191.842z"/>
	</g>
</g>
<g>
	<g>
		<path d="M161.22,169.641c-1.86-1.859-4.44-2.93-7.07-2.93s-5.21,1.07-7.07,2.93c-1.86,1.86-2.93,4.44-2.93,7.07
			s1.07,5.21,2.93,7.07s4.44,2.93,7.07,2.93s5.21-1.07,7.07-2.93c1.86-1.86,2.93-4.44,2.93-7.07S163.08,171.501,161.22,169.641z"/>
	</g>
</g>
<g>
	<g>
		<path d="M118.93,169.641c-1.85-1.859-4.43-2.93-7.07-2.93c-2.63,0-5.2,1.07-7.07,2.93c-1.86,1.86-2.93,4.44-2.93,7.07
			s1.07,5.21,2.93,7.07c1.87,1.86,4.44,2.93,7.07,2.93c2.64,0,5.21-1.07,7.07-2.93c1.87-1.86,2.93-4.44,2.93-7.07
			S120.8,171.501,118.93,169.641z"/>
	</g>
</g>
<g>
	<g>
		<path d="M140.14,205.732c-1.86-1.86-4.44-2.931-7.07-2.931s-5.21,1.07-7.07,2.931c-1.86,1.869-2.93,4.439-2.93,7.08
			c0,2.63,1.07,5.199,2.93,7.069c1.86,1.86,4.44,2.931,7.07,2.931s5.21-1.07,7.07-2.931c1.86-1.87,2.93-4.45,2.93-7.069
			C143.07,210.181,142,207.601,140.14,205.732z"/>
	</g>
</g>
<g>
	<g>
		<path d="M402.267,239.031c-8.312,0-16.422,2.549-23.267,7.178c-6.844-4.629-14.955-7.178-23.267-7.178
			c-23.174,0-42.028,19.223-42.028,42.851c0,13.486,10.008,29.994,30.596,50.466c14.122,14.043,28.039,24.72,28.625,25.168
			c1.792,1.37,3.933,2.056,6.074,2.056s4.281-0.686,6.074-2.056c0.585-0.448,14.502-11.125,28.625-25.168
			c20.588-20.472,30.596-36.979,30.596-50.466C444.294,258.254,425.441,239.031,402.267,239.031z M379,336.816
			c-20.525-16.779-45.294-42.139-45.294-54.935c0-12.6,9.882-22.851,22.028-22.851c6.066,0,11.718,2.506,15.917,7.057
			c1.893,2.053,4.558,3.22,7.35,3.22s5.457-1.167,7.35-3.22c4.198-4.551,9.851-7.057,15.917-7.057
			c12.146,0,22.028,10.251,22.028,22.851C424.294,294.679,399.525,320.039,379,336.816z"/>
	</g>
</g>
<g>
	<g>
		<path d="M197.5,283.948h-85.636c-5.523,0-10,4.478-10,10c0,5.522,4.477,10,10,10H197.5c5.523,0,10-4.478,10-10
			C207.5,288.426,203.023,283.948,197.5,283.948z"/>
	</g>
</g>
<g>
	<g>
		<path d="M75.57,286.881c-1.86-1.87-4.44-2.93-7.07-2.93s-5.21,1.06-7.07,2.93c-1.86,1.86-2.93,4.431-2.93,7.07
			c0,2.63,1.07,5.21,2.93,7.07c1.86,1.86,4.44,2.93,7.07,2.93s5.21-1.07,7.07-2.93s2.93-4.44,2.93-7.07S77.43,288.741,75.57,286.881
			z"/>
	</g>
</g>
<g>
	<g>
		<path d="M197.5,331.948h-129c-5.523,0-10,4.478-10,10c0,5.522,4.477,10,10,10h129c5.523,0,10-4.478,10-10
			C207.5,336.426,203.023,331.948,197.5,331.948z"/>
	</g>
</g>
<g>
	<g>
		<path d="M443.5,129.031h-129c-5.523,0-10,4.478-10,10c0,5.522,4.477,10,10,10h129c5.523,0,10-4.478,10-10
			C453.5,133.509,449.023,129.031,443.5,129.031z"/>
	</g>
</g>
<g>
	<g>
		<path d="M450.57,179.961c-1.86-1.86-4.44-2.93-7.07-2.93s-5.21,1.069-7.07,2.93c-1.86,1.86-2.93,4.44-2.93,7.07
			s1.07,5.21,2.93,7.069c1.86,1.86,4.44,2.931,7.07,2.931s5.21-1.07,7.07-2.931c1.86-1.859,2.93-4.439,2.93-7.069
			S452.43,181.821,450.57,179.961z"/>
	</g>
</g>
<g>
	<g>
		<path d="M398.333,177.031H314.5c-5.523,0-10,4.478-10,10c0,5.522,4.477,10,10,10h83.833c5.523,0,10-4.478,10-10
			C408.333,181.509,403.856,177.031,398.333,177.031z"/>
	</g>
</g>
<g>
</g>
<g>
</g>
<g>
</g>
<g>
</g>
<g>
</g>
<g>
</g>
<g>
</g>
<g>
</g>
<g>
</g>
<g>
</g>
<g>
</g>
<g>
</g>
<g>
</g>
<g>
</g>
<g>
</g>
</svg>
