<?xml version="1.0" encoding="iso-8859-1"?>
<!-- Generator: Adobe Illustrator 19.0.0, SVG Export Plug-In . SVG Version: 6.00 Build 0)  -->
<svg version="1.1" id="Layer_1" xmlns="http://www.w3.org/2000/svg" xmlns:xlink="http://www.w3.org/1999/xlink" x="0px" y="0px"
	 viewBox="0 0 491.52 491.52" style="enable-background:new 0 0 491.52 491.52;" xml:space="preserve">
<g>
	<g>
		<path d="M471.04,368.64h-20.48v-102.4c0-11.311-9.169-20.48-20.48-20.48h-102.4v-61.44h40.96c17.497,0,26.937-20.523,15.55-33.808
			L261.31,7.152c-8.173-9.536-22.926-9.536-31.099,0l-122.88,143.36c-11.387,13.285-1.948,33.808,15.55,33.808h40.96v61.44H61.44
			c-11.311,0-20.48,9.169-20.48,20.48v102.4H20.48C9.169,368.64,0,377.809,0,389.12v81.92c0,11.311,9.169,20.48,20.48,20.48h81.92
			h81.92c11.311,0,20.48-9.169,20.48-20.48v-81.92v-61.44c0-22.625,18.335-40.96,40.96-40.96s40.96,18.335,40.96,40.96v61.44v81.92
			c0,11.311,9.169,20.48,20.48,20.48h81.92h81.92c11.311,0,20.48-9.169,20.48-20.48v-81.92
			C491.52,377.809,482.351,368.64,471.04,368.64z M409.6,368.64h-20.48h-61.44v-40.96c0-1.258-0.039-2.506-0.095-3.75
			c-0.014-0.305-0.029-0.609-0.046-0.912c-0.069-1.233-0.157-2.461-0.28-3.679c-0.006-0.062-0.015-0.122-0.022-0.184
			c-0.121-1.169-0.273-2.329-0.443-3.483c-0.043-0.294-0.087-0.587-0.133-0.88c-0.189-1.193-0.395-2.38-0.635-3.555
			c-0.022-0.106-0.047-0.21-0.069-0.316c-0.227-1.091-0.48-2.173-0.749-3.248c-0.07-0.281-0.141-0.562-0.214-0.842
			c-0.301-1.148-0.621-2.289-0.97-3.417c-0.042-0.136-0.089-0.27-0.132-0.406c-0.322-1.021-0.667-2.033-1.027-3.036
			c-0.096-0.266-0.19-0.532-0.288-0.796c-0.408-1.098-0.834-2.187-1.286-3.263c-0.066-0.157-0.138-0.312-0.205-0.469
			c-0.409-0.955-0.838-1.9-1.282-2.836c-0.117-0.247-0.233-0.496-0.353-0.742c-0.508-1.043-1.034-2.076-1.584-3.094
			c-0.092-0.17-0.189-0.337-0.282-0.507c-0.284-0.517-0.567-1.036-0.862-1.546H409.6V368.64z M245.76,51.949l78.352,91.411H307.2
			H184.32h-16.912L245.76,51.949z M81.92,286.72h92.878c-0.295,0.51-0.577,1.029-0.862,1.546c-0.093,0.17-0.19,0.336-0.282,0.507
			c-0.55,1.018-1.076,2.05-1.584,3.094c-0.12,0.246-0.236,0.494-0.353,0.742c-0.444,0.936-0.873,1.881-1.282,2.836
			c-0.067,0.157-0.139,0.311-0.205,0.469c-0.453,1.075-0.879,2.165-1.286,3.263c-0.098,0.265-0.193,0.531-0.288,0.796
			c-0.361,1.004-0.705,2.015-1.027,3.036c-0.043,0.136-0.09,0.27-0.132,0.406c-0.349,1.128-0.669,2.269-0.97,3.417
			c-0.073,0.28-0.144,0.561-0.214,0.842c-0.27,1.075-0.523,2.156-0.749,3.248c-0.022,0.106-0.048,0.21-0.069,0.316
			c-0.239,1.175-0.446,2.362-0.635,3.555c-0.046,0.293-0.09,0.586-0.133,0.88c-0.169,1.154-0.322,2.314-0.443,3.483
			c-0.006,0.062-0.015,0.122-0.022,0.184c-0.123,1.218-0.211,2.446-0.28,3.679c-0.017,0.304-0.032,0.608-0.046,0.912
			c-0.056,1.244-0.095,2.492-0.095,3.75v40.96H102.4H81.92V286.72z M40.96,409.6h20.48h20.48v40.96H40.96V409.6z M122.88,409.6
			h40.96v40.96h-40.96V409.6z M204.8,245.76v-61.44h81.92v61.44h-40.96H204.8z M327.68,409.6h40.96v40.96h-40.96V409.6z
			 M450.56,450.56H409.6V409.6h20.48h20.48V450.56z"/>
	</g>
</g>
<g>
</g>
<g>
</g>
<g>
</g>
<g>
</g>
<g>
</g>
<g>
</g>
<g>
</g>
<g>
</g>
<g>
</g>
<g>
</g>
<g>
</g>
<g>
</g>
<g>
</g>
<g>
</g>
<g>
</g>
</svg>
