<svg height="512pt" viewBox="0 -49 512 511" width="512pt" xmlns="http://www.w3.org/2000/svg"><path d="m501.90625 29.9375h-37.878906v-19.710938c0-12.960937-20.1875-12.980468-20.1875 0v19.710938h-374.757813v-19.710938c0-12.960937-20.1875-12.980468-20.1875 0v19.710938h-38.800781c-5.574219 0-10.09375 4.519531-10.09375 10.097656v363.753906c0 5.574219 4.519531 10.097657 10.09375 10.097657h387.507812c12.960938 0 12.976563-20.191407 0-20.191407h-377.414062v-343.566406h471.625v343.566406h-12.390625c-12.960937 0-12.980469 20.191407 0 20.191407h22.484375c5.574219 0 10.09375-4.523438 10.09375-10.097657v-363.753906c0-5.578125-4.519531-10.097656-10.09375-10.097656zm0 0"/><path d="m454.007812 331.058594c5.574219 0 10.09375-4.519532 10.09375-10.09375v-235.832032c0-5.578124-4.519531-10.09375-10.09375-10.09375h-396.015624c-5.574219 0-10.09375 4.515626-10.09375 10.09375v235.832032c0 5.574218 4.519531 10.09375 10.09375 10.09375zm-111.953124-20.1875v-18.460938h63.675781v18.460938zm101.859374 0h-17.996093v-28.554688c0-5.574218-4.519531-10.097656-10.09375-10.097656h-83.863281c-5.574219 0-10.09375 4.523438-10.09375 10.097656v28.554688h-253.78125v-215.644532h375.828124zm0 0"/><path d="m173.527344 201.710938c-11.082032 0-19.722656 1.613281-25.671875 4.792968-11.09375 5.933594-12.550781 24.078125-3.644531 32.625 3.71875 3.570313 8.535156 5.382813 14.316406 5.382813 7.621094 0 14.71875-3.535157 21.128906-10.515625-.328125 2.722656.5625 5.390625 2.792969 7.125 4.527343 3.527344 16.851562 2.71875 16.851562-4.898438v-35.683594c0-8.386718-2.691406-15.457031-8-21.015624-5.320312-5.570313-13.507812-8.394532-24.324219-8.394532-5.644531 0-11.089843 1.078125-16.195312 3.207032-12.730469 5.316406-7.894531 22.960937 5.160156 16.023437 2.945313-1.5625 6.5625-2.355469 10.742188-2.355469 7.691406 0 12.175781 6.277344 11.808594 13.710938h-4.964844zm-7.425782 25.925781c-7.1875 0-8.609374-7.84375-3.578124-11.808594 3.597656-2.835937 11.671874-2.425781 15.96875-2.339844.613281 6.800781-5.300782 14.148438-12.390626 14.148438zm0 0"/><path d="m229.027344 241.203125c5.320312 3.695313 16.5 2.246094 16.585937-5.84375 4.46875 5.671875 12.054688 9.152344 19.234375 9.152344 6.980469 0 13.214844-3.15625 18.539063-9.382813 11.363281-13.292968 11.671875-41.65625.0625-54.921875-7.519531-8.59375-20.816407-12.351562-30.882813-5.679687-2.304687 1.527344-4.242187 3.3125-5.789062 5.332031v-41.226563c0-9.289062-20.804688-9.515624-20.804688-.003906v97.597656c-.003906 1.898438 1.027344 3.570313 3.054688 4.976563zm17.75-25v-14.457031c0-15.449219 23.761718-15.394532 23.761718 0v11.855468c0 14.289063-23.761718 16.285157-23.761718 2.601563zm0 0"/><path d="m346.265625 244.511719c6.734375 0 12.601563-1.285157 17.4375-3.828125 12.808594-6.738282 5.808594-23.328125-7.257813-16.800782-9.40625 4.707032-21.988281 1.535157-21.988281-10.28125v-11.566406c0-11.921875 12.472657-14.746094 21.945313-10.414062 12.523437 5.734375 19.089844-10.464844 6.789062-16.886719-4.59375-2.394531-10.335937-3.609375-17.070312-3.609375-10.722656 0-18.90625 2.875-24.328125 8.542969-11.863281 12.414062-11.941407 43.988281.003906 56.378906 5.414063 5.617187 13.648437 8.464844 24.46875 8.464844zm0 0"/><path d="m58.988281 350.9375c-12.960937 0-12.980469 20.1875 0 20.1875h77.402344c5.574219 0 10.09375-4.519531 10.09375-10.09375s-4.519531-10.09375-10.09375-10.09375zm0 0"/><path d="m438.167969 393.699219c-5.484375 0-10.097657 4.609375-10.09375 10.09375 0 5.484375 4.609375 10.09375 10.09375 10.09375 5.328125 0 9.839843-4.339844 10.074219-9.652344.25-5.652344-4.40625-10.535156-10.074219-10.535156zm0 0"/></svg>