<?xml version="1.0" encoding="iso-8859-1"?>
<!-- Generator: Adobe Illustrator 19.0.0, SVG Export Plug-In . SVG Version: 6.00 Build 0)  -->
<svg version="1.1" id="Capa_1" xmlns="http://www.w3.org/2000/svg" xmlns:xlink="http://www.w3.org/1999/xlink" x="0px" y="0px"
	 viewBox="0 0 511.999 511.999" style="enable-background:new 0 0 511.999 511.999;" xml:space="preserve">
<g>
	<g>
		<path d="M398.78,0H113.219c-24.813,0-45,20.187-45,45v383.379c0,24.813,20.187,45,45,45h22.771V497
			c0,5.526,3.038,10.604,7.908,13.218c4.868,2.611,10.78,2.335,15.385-0.719l17.35-11.512c0,0,17.345,11.509,17.35,11.512
			c4.478,2.971,10.564,3.305,15.385,0.719c4.87-2.613,7.908-7.691,7.908-13.218v-23.621h182.582
			c24.219,0,43.923-19.704,43.923-43.923V45C443.78,20.187,423.593,0,398.78,0z M187.274,469.045l-2.349-1.559
			c-2.513-1.667-5.402-2.501-8.293-2.501s-5.78,0.834-8.293,2.501l-2.35,1.559v-36.762h21.285V469.045z M413.78,429.457
			c0,7.677-6.246,13.923-13.923,13.923H217.275v-11.097h161.654c8.284,0,15-6.716,15-15s-6.716-15-15-15H130.644
			c-8.284,0-15,6.716-15,15s6.716,15,15,15h5.346v11.096h-22.771c-8.271,0-15-6.729-15-15v-22.191c0-8.271,6.729-15,15-15H413.78
			V429.457z M413.78,361.188H113.219c-5.258,0-10.305,0.915-15,2.58V45c0-8.271,6.729-15,15-15H398.78c8.271,0,15,6.729,15,15
			V361.188z"/>
	</g>
</g>
<g>
	<g>
		<path d="M317.447,137.934c-10.563-10.528-24.553-16.318-39.412-16.318c-0.064,0-0.13,0-0.193,0
			c-7.563,0.025-14.978,1.57-21.841,4.516c-6.864-2.947-14.279-4.491-21.846-4.516c-0.063,0-0.124,0-0.187,0
			c-14.86,0-28.853,5.792-39.416,16.32c-10.606,10.572-16.448,24.617-16.448,39.545c0,14.256,5.37,27.831,15.123,38.223
			l43.213,46.05c5.05,5.382,12.179,8.469,19.557,8.469h0.004c7.379,0,14.508-3.086,19.558-8.468l43.215-46.05
			c9.752-10.391,15.123-23.966,15.123-38.223C333.897,162.552,328.055,148.507,317.447,137.934z M296.898,195.177L256,238.757
			l-40.897-43.581c-4.514-4.809-6.999-11.093-6.999-17.693c-0.001-6.898,2.708-13.396,7.626-18.298
			c4.898-4.883,11.373-7.568,18.24-7.568c0.028,0,0.057,0,0.086,0c4.822,0.016,9.505,1.359,13.563,3.889
			c4.817,3.24,11.288,3.505,16.476,0.18c4.124-2.645,8.912-4.052,13.846-4.068c0.029,0,0.059,0,0.089,0
			c6.866,0,13.34,2.685,18.238,7.567c4.919,4.902,7.628,11.401,7.628,18.299C303.896,184.085,301.411,190.368,296.898,195.177z"/>
	</g>
</g>
<g>
</g>
<g>
</g>
<g>
</g>
<g>
</g>
<g>
</g>
<g>
</g>
<g>
</g>
<g>
</g>
<g>
</g>
<g>
</g>
<g>
</g>
<g>
</g>
<g>
</g>
<g>
</g>
<g>
</g>
</svg>
