<svg width="54" height="72" viewBox="0 0 54 72" fill="none" xmlns="http://www.w3.org/2000/svg">
<path d="M51.0388 18.6996C50.549 31.2775 24.474 38.6756 29.7159 49.1595C34.9183 59.5642 6.90563 62.3654 5.86516 49.9599C4.66461 26.7495 19.3112 7.54076 34.9183 5.13957C40.5208 3.13877 51.5285 6.12171 51.0388 18.6996Z" fill="#F5F7F9"/>
<path d="M19.0074 55.9785C32.3359 56.2938 34.0307 42.5303 24.5024 44.0869C23.8398 44.0611 51.5692 34.1806 51.0505 17.5158C50.7559 8.04988 41.4772 2.28955 32.2031 4.82054C24.553 6.90871 4.68978 16.4818 3.68437 49.6936M8.4531 67.3992C8.4531 67.3992 11.3728 44.1708 17.7692 32.8645C27.6203 15.4519 41.2031 15.9883 41.2031 15.9883" stroke="black" stroke-width="4.442" stroke-linecap="round"/>
</svg>
