<?xml version="1.0"?>
<svg xmlns="http://www.w3.org/2000/svg" xmlns:xlink="http://www.w3.org/1999/xlink" version="1.1" id="Capa_1" x="0px" y="0px" viewBox="0 0 436.907 436.907" style="enable-background:new 0 0 436.907 436.907;" xml:space="preserve" width="512px" height="512px" class=""><g><path style="fill:#FFFFFF" d="M170.667,10.24h125.645c9.749,0,17.715,7.967,17.715,17.715V183.67  c0,9.748-7.967,17.715-17.715,17.715H140.595c-9.748,0.002-17.715-7.965-17.715-17.714V27.955c0-9.748,7.967-17.715,17.715-17.715" data-original="#FFFFFF" class=""/><path style="fill:#444444" d="M296.311,208.213H140.595c-13.532,0-24.542-11.01-24.542-24.542V27.955  c0-13.532,11.01-24.542,24.542-24.542c3.77,0,6.827,3.057,6.827,6.827s-3.057,6.827-6.827,6.827  c-6.004,0-10.889,4.884-10.889,10.889v155.716c0,6.004,4.884,10.889,10.889,10.889h155.716c6.004,0,10.889-4.884,10.889-10.889  V27.955c0-6.004-4.884-10.889-10.889-10.889H170.667c-3.77,0-6.827-3.057-6.827-6.827s3.057-6.827,6.827-6.827h125.645  c13.532,0,24.542,11.01,24.542,24.542v155.716C320.853,197.204,309.844,208.213,296.311,208.213z" data-original="#602F75" class="" data-old_color="#602F75"/><path style="fill:#FFFFFF" d="M49.468,235.52h130.79c9.748,0,17.715,7.965,17.715,17.715v155.716  c0,9.748-7.967,17.715-17.715,17.715H24.542c-9.748,0-17.715-7.967-17.715-17.715V253.235c0-9.748,7.967-17.715,17.715-17.715l0,0" data-original="#FFFFFF" class=""/><path style="fill:#444444" d="M180.258,433.493H24.542C11.01,433.493,0,422.484,0,408.951V253.235  c0-13.532,11.01-24.542,24.542-24.542c3.77,0,6.827,3.057,6.827,6.827c0,3.77-3.057,6.827-6.827,6.827  c-6.004,0-10.889,4.884-10.889,10.889v155.716c0,6.004,4.884,10.889,10.889,10.889h155.716c6.004,0,10.889-4.884,10.889-10.889  V253.235c0-6.004-4.884-10.889-10.889-10.889H49.468c-3.77,0-6.827-3.057-6.827-6.827c0-3.77,3.057-6.827,6.827-6.827h130.79  c13.532,0,24.542,11.01,24.542,24.542v155.716C204.8,422.484,193.79,433.493,180.258,433.493z" data-original="#602F75" class="" data-old_color="#602F75"/><g>
	<circle style="fill:#FFC205" cx="218.453" cy="105.813" r="61.44" data-original="#FFE600" class="" data-old_color="#FFE600"/>
	<path style="fill:#FFC205" d="M218.453,174.08c-37.642,0-68.267-30.624-68.267-68.267s30.624-68.267,68.267-68.267   s68.267,30.624,68.267,68.267S256.096,174.08,218.453,174.08z M218.453,51.2c-30.114,0-54.613,24.499-54.613,54.613   s24.499,54.613,54.613,54.613s54.613-24.499,54.613-54.613S248.567,51.2,218.453,51.2z" data-original="#FFE600" class="" data-old_color="#FFE600"/>
</g><g>
	<circle style="fill:#FFC205" cx="136.533" cy="296.96" r="34.133" data-original="#00E7FF" class="active-path" data-old_color="#00E7FF"/>
	<path style="fill:#FFC205" d="M136.533,334.886c-20.912,0-37.926-17.014-37.926-37.926c0-20.912,17.014-37.926,37.926-37.926   s37.926,17.014,37.926,37.926C174.459,317.872,157.445,334.886,136.533,334.886z M136.533,266.619   c-16.73,0-30.341,13.611-30.341,30.341c0,16.73,13.611,30.341,30.341,30.341s30.341-13.611,30.341-30.341   C166.874,280.23,153.264,266.619,136.533,266.619z" data-original="#00E7FF" class="active-path" data-old_color="#00E7FF"/>
</g><path style="fill:#FFC205" d="M279.893,235.52h132.471c9.748,0,17.715,7.965,17.715,17.715v155.716  c0,9.748-7.967,17.715-17.715,17.715H256.649c-9.749,0-17.715-7.967-17.715-17.715V253.235c0-9.748,7.967-17.715,17.715-17.715" data-original="#FFE600" class="" data-old_color="#FFE600"/><g>
	<path style="fill:#444444" d="M412.365,433.493H256.649c-13.532,0-24.542-11.01-24.542-24.542V253.235   c0-13.532,11.01-24.542,24.542-24.542c3.77,0,6.827,3.057,6.827,6.827c0,3.77-3.057,6.827-6.827,6.827   c-6.004,0-10.889,4.884-10.889,10.889v155.716c0,6.004,4.884,10.889,10.889,10.889h155.715c6.004,0,10.889-4.884,10.889-10.889   V253.235c0-6.004-4.884-10.889-10.889-10.889h-132.47c-3.77,0-6.827-3.057-6.827-6.827c0-3.77,3.057-6.827,6.827-6.827h132.471   c13.532,0,24.542,11.01,24.542,24.542v155.716C436.907,422.484,425.897,433.493,412.365,433.493z" data-original="#602F75" class="" data-old_color="#602F75"/>
	<path style="fill:#444444" d="M259.415,174.082c-2.697,0-5.25-1.608-6.327-4.26L215.04,76.165l-38.048,93.658   c-1.418,3.494-5.402,5.175-8.893,3.755c-3.494-1.42-5.175-5.402-3.755-8.893l44.373-109.227c1.044-2.575,3.545-4.258,6.323-4.258   c2.778,0,5.279,1.683,6.325,4.258l44.373,109.227c1.418,3.494-0.263,7.475-3.755,8.893   C261.14,173.92,260.272,174.082,259.415,174.082z" data-original="#602F75" class="" data-old_color="#602F75"/>
</g><rect x="184.32" y="126.293" style="fill:#444444" width="61.44" height="13.653" data-original="#602F75" class="" data-old_color="#602F75"/><g>
	<circle style="fill:#FFFFFF" cx="341.333" cy="331.093" r="30.72" data-original="#EA3457" class="" data-old_color="#EA3457"/>
	<path style="fill:#FFFFFF" d="M341.333,365.227c-18.821,0-34.133-15.312-34.133-34.133c0-18.821,15.312-34.133,34.133-34.133   c18.821,0,34.133,15.312,34.133,34.133C375.467,349.914,360.154,365.227,341.333,365.227z M341.333,303.787   c-15.056,0-27.307,12.25-27.307,27.307c0,15.056,12.25,27.307,27.307,27.307s27.307-12.25,27.307-27.307   C368.64,316.037,356.39,303.787,341.333,303.787z" data-original="#EA3457" class="" data-old_color="#EA3457"/>
</g><g>
	<path style="fill:#444444" d="M68.267,392.533c-3.77,0-6.827-3.057-6.827-6.827v-102.4c0-3.77,3.057-6.827,6.827-6.827   s6.827,3.057,6.827,6.827v102.4C75.093,389.477,72.037,392.533,68.267,392.533z" data-original="#602F75" class="" data-old_color="#602F75"/>
	<path style="fill:#444444" d="M102.069,337.92c-3.77,0-6.827-3.057-6.827-6.827c0-3.77,3.057-6.827,6.827-6.827   c1.033,0,2.07-0.06,3.07-0.183c2.045-0.249,4.026-0.754,5.898-1.505c7.2-2.862,11.841-8.895,11.841-15.375   c0.002-9.412-9.334-17.07-20.809-17.07H68.267c-3.77,0-6.827-3.057-6.827-6.827s3.057-6.827,6.827-6.827h33.802   c19.004,0,34.464,13.78,34.464,30.715c0,12.112-8.021,23.129-20.434,28.064c-2.954,1.184-6.089,1.985-9.3,2.376   C105.265,337.824,103.663,337.92,102.069,337.92z" data-original="#602F75" class="" data-old_color="#602F75"/>
	<path style="fill:#444444" d="M116.692,392.533H68.267c-3.77,0-6.827-3.057-6.827-6.827c0-3.77,3.057-6.827,6.827-6.827h48.425   c10.941,0,19.842-9.185,19.842-20.477c0-11.295-8.902-20.483-19.842-20.483H68.267c-3.77,0-6.827-3.057-6.827-6.827   c0-3.77,3.057-6.827,6.827-6.827h48.425c18.47,0,33.495,15.311,33.495,34.128C150.187,377.219,135.161,392.533,116.692,392.533z" data-original="#602F75" class="" data-old_color="#602F75"/>
	<path style="fill:#444444" d="M341.149,392.533c-33.777,0-61.256-27.563-61.256-61.44s27.479-61.44,61.256-61.44   c12.832,0,25.114,3.936,35.516,11.382c3.065,2.195,3.772,6.46,1.577,9.525c-2.195,3.065-6.46,3.772-9.525,1.577   c-8.069-5.777-17.603-8.83-27.568-8.83c-26.249,0-47.602,21.437-47.602,47.787c0,26.351,21.354,47.787,47.602,47.787   c10.912,0,21.565-3.796,29.998-10.687c2.92-2.386,7.221-1.952,9.605,0.966c2.386,2.92,1.954,7.219-0.966,9.605   C368.923,387.644,355.202,392.533,341.149,392.533z" data-original="#602F75" class="" data-old_color="#602F75"/>
</g></g> </svg>
