<?xml version="1.0" encoding="UTF-8" standalone="no"?>
<svg
   xmlns:dc="http://purl.org/dc/elements/1.1/"
   xmlns:cc="http://creativecommons.org/ns#"
   xmlns:rdf="http://www.w3.org/1999/02/22-rdf-syntax-ns#"
   xmlns:svg="http://www.w3.org/2000/svg"
   xmlns="http://www.w3.org/2000/svg"
   xmlns:sodipodi="http://sodipodi.sourceforge.net/DTD/sodipodi-0.dtd"
   xmlns:inkscape="http://www.inkscape.org/namespaces/inkscape"
   version="1.1"
   id="Capa_1"
   x="0px"
   y="0px"
   viewBox="0 0 436.907 436.907"
   style="enable-background:new 0 0 436.907 436.907;"
   xml:space="preserve"
   width="512px"
   height="512px"
   class=""
   sodipodi:docname="icon-abc-1-256.svg"
   inkscape:version="0.92.3 (2405546, 2018-03-11)"><metadata
   id="metadata55"><rdf:RDF><cc:Work
       rdf:about=""><dc:format>image/svg+xml</dc:format><dc:type
         rdf:resource="http://purl.org/dc/dcmitype/StillImage" /><dc:title></dc:title></cc:Work></rdf:RDF></metadata><defs
   id="defs53" /><sodipodi:namedview
   pagecolor="#ffffff"
   bordercolor="#666666"
   borderopacity="1"
   objecttolerance="10"
   gridtolerance="10"
   guidetolerance="10"
   inkscape:pageopacity="0"
   inkscape:pageshadow="2"
   inkscape:window-width="1366"
   inkscape:window-height="715"
   id="namedview51"
   showgrid="false"
   inkscape:zoom="0.4609375"
   inkscape:cx="256"
   inkscape:cy="256"
   inkscape:window-x="-8"
   inkscape:window-y="-8"
   inkscape:window-maximized="1"
   inkscape:current-layer="g48" /><g
   id="g48"><g
     id="g910"
     transform="translate(111.07805,-114.78065)"><path
       inkscape:connector-curvature="0"
       id="path2"
       class=""
       data-original="#FFFFFF"
       d="m 85.3335,221.8665 h 62.8225 c 4.8745,0 8.8575,3.9835 8.8575,8.8575 v 77.8575 c 0,4.874 -3.9835,8.8575 -8.8575,8.8575 H 70.2975 c -4.874,10e-4 -8.8575,-3.9825 -8.8575,-8.857 v -77.858 c 0,-4.874 3.9835,-8.8575 8.8575,-8.8575"
       style="fill:#ffffff;stroke-width:0.5" /><path
       inkscape:connector-curvature="0"
       id="path4"
       data-old_color="#602F75"
       class=""
       data-original="#602F75"
       d="m 148.1555,320.853 h -77.858 c -6.766,0 -12.271,-5.505 -12.271,-12.271 v -77.858 c 0,-6.766 5.505,-12.271 12.271,-12.271 1.885,0 3.4135,1.5285 3.4135,3.4135 0,1.885 -1.5285,3.4135 -3.4135,3.4135 -3.002,0 -5.4445,2.442 -5.4445,5.4445 v 77.858 c 0,3.002 2.442,5.4445 5.4445,5.4445 h 77.858 c 3.002,0 5.4445,-2.442 5.4445,-5.4445 V 230.724 c 0,-3.002 -2.442,-5.4445 -5.4445,-5.4445 h -62.822 c -1.885,0 -3.4135,-1.5285 -3.4135,-3.4135 0,-1.885 1.5285,-3.4135 3.4135,-3.4135 h 62.8225 c 6.766,0 12.271,5.505 12.271,12.271 v 77.858 c -5e-4,6.767 -5.505,12.2715 -12.2715,12.2715 z"
       style="fill:#444444;stroke-width:0.5" /><path
       inkscape:connector-curvature="0"
       id="path6"
       class=""
       data-original="#FFFFFF"
       d="m 24.734,334.5065 h 65.395 c 4.874,0 8.8575,3.9825 8.8575,8.8575 v 77.858 c 0,4.874 -3.9835,8.8575 -8.8575,8.8575 H 12.271 c -4.874,0 -8.8575,-3.9835 -8.8575,-8.8575 v -77.858 c 0,-4.874 3.9835,-8.8575 8.8575,-8.8575 v 0"
       style="fill:#ffffff;stroke-width:0.5" /><path
       inkscape:connector-curvature="0"
       id="path8"
       data-old_color="#602F75"
       class=""
       data-original="#602F75"
       d="M 90.129,433.493 H 12.271 C 5.505,433.493 0,427.9885 0,421.222 v -77.858 c 0,-6.766 5.505,-12.271 12.271,-12.271 1.885,0 3.4135,1.5285 3.4135,3.4135 0,1.885 -1.5285,3.4135 -3.4135,3.4135 -3.002,0 -5.4445,2.442 -5.4445,5.4445 v 77.858 c 0,3.002 2.442,5.4445 5.4445,5.4445 h 77.858 c 3.002,0 5.4445,-2.442 5.4445,-5.4445 V 343.364 c 0,-3.002 -2.442,-5.4445 -5.4445,-5.4445 H 24.734 c -1.885,0 -3.4135,-1.5285 -3.4135,-3.4135 0,-1.885 1.5285,-3.4135 3.4135,-3.4135 h 65.395 c 6.766,0 12.271,5.505 12.271,12.271 v 77.858 c 0,6.767 -5.505,12.2715 -12.271,12.2715 z"
       style="fill:#444444;stroke-width:0.5" /><g
       transform="matrix(0.5,0,0,0.5,0,216.7465)"
       id="g14">
	<circle
   id="circle10"
   data-old_color="#FFE600"
   class=""
   data-original="#FFE600"
   r="61.439999"
   cy="105.813"
   cx="218.453"
   style="fill:#ffc205" />
	<path
   inkscape:connector-curvature="0"
   id="path12"
   data-old_color="#FFE600"
   class=""
   data-original="#FFE600"
   d="m 218.453,174.08 c -37.642,0 -68.267,-30.624 -68.267,-68.267 0,-37.643 30.624,-68.267 68.267,-68.267 37.643,0 68.267,30.624 68.267,68.267 0,37.643 -30.624,68.267 -68.267,68.267 z m 0,-122.88 c -30.114,0 -54.613,24.499 -54.613,54.613 0,30.114 24.499,54.613 54.613,54.613 30.114,0 54.613,-24.499 54.613,-54.613 0,-30.114 -24.499,-54.613 -54.613,-54.613 z"
   style="fill:#ffc205" />
</g><g
       transform="matrix(0.5,0,0,0.5,0,216.7465)"
       id="g20">
	<circle
   id="circle16"
   data-old_color="#00E7FF"
   class="active-path"
   data-original="#00E7FF"
   r="34.132999"
   cy="296.95999"
   cx="136.533"
   style="fill:#ffc205" />
	<path
   inkscape:connector-curvature="0"
   id="path18"
   data-old_color="#00E7FF"
   class="active-path"
   data-original="#00E7FF"
   d="m 136.533,334.886 c -20.912,0 -37.926,-17.014 -37.926,-37.926 0,-20.912 17.014,-37.926 37.926,-37.926 20.912,0 37.926,17.014 37.926,37.926 0,20.912 -17.014,37.926 -37.926,37.926 z m 0,-68.267 c -16.73,0 -30.341,13.611 -30.341,30.341 0,16.73 13.611,30.341 30.341,30.341 16.73,0 30.341,-13.611 30.341,-30.341 0,-16.73 -13.61,-30.341 -30.341,-30.341 z"
   style="fill:#ffc205" />
</g><path
       inkscape:connector-curvature="0"
       id="path22"
       data-old_color="#FFE600"
       class=""
       data-original="#FFE600"
       d="m 139.9465,334.5065 h 66.2355 c 4.874,0 8.8575,3.9825 8.8575,8.8575 v 77.858 c 0,4.874 -3.9835,8.8575 -8.8575,8.8575 h -77.8575 c -4.8745,0 -8.8575,-3.9835 -8.8575,-8.8575 v -77.858 c 0,-4.874 3.9835,-8.8575 8.8575,-8.8575"
       style="fill:#ffc205;stroke-width:0.5" /><g
       transform="matrix(0.5,0,0,0.5,0,216.7465)"
       id="g28">
	<path
   inkscape:connector-curvature="0"
   id="path24"
   data-old_color="#602F75"
   class=""
   data-original="#602F75"
   d="M 412.365,433.493 H 256.649 c -13.532,0 -24.542,-11.01 -24.542,-24.542 V 253.235 c 0,-13.532 11.01,-24.542 24.542,-24.542 3.77,0 6.827,3.057 6.827,6.827 0,3.77 -3.057,6.827 -6.827,6.827 -6.004,0 -10.889,4.884 -10.889,10.889 v 155.716 c 0,6.004 4.884,10.889 10.889,10.889 h 155.715 c 6.004,0 10.889,-4.884 10.889,-10.889 V 253.235 c 0,-6.004 -4.884,-10.889 -10.889,-10.889 h -132.47 c -3.77,0 -6.827,-3.057 -6.827,-6.827 0,-3.77 3.057,-6.827 6.827,-6.827 h 132.471 c 13.532,0 24.542,11.01 24.542,24.542 V 408.95 c 0,13.534 -11.01,24.543 -24.542,24.543 z"
   style="fill:#444444" />
	<path
   inkscape:connector-curvature="0"
   id="path26"
   data-old_color="#602F75"
   class=""
   data-original="#602F75"
   d="m 259.415,174.082 c -2.697,0 -5.25,-1.608 -6.327,-4.26 L 215.04,76.165 176.992,169.823 c -1.418,3.494 -5.402,5.175 -8.893,3.755 -3.494,-1.42 -5.175,-5.402 -3.755,-8.893 L 208.717,55.458 c 1.044,-2.575 3.545,-4.258 6.323,-4.258 2.778,0 5.279,1.683 6.325,4.258 l 44.373,109.227 c 1.418,3.494 -0.263,7.475 -3.755,8.893 -0.843,0.342 -1.711,0.504 -2.568,0.504 z"
   style="fill:#444444" />
</g><rect
       id="rect30"
       data-old_color="#602F75"
       class=""
       data-original="#602F75"
       height="6.8264999"
       width="30.719999"
       style="fill:#444444;stroke-width:0.5"
       y="279.89301"
       x="92.160004" /><g
       transform="matrix(0.5,0,0,0.5,0,216.7465)"
       id="g36">
	<circle
   id="circle32"
   data-old_color="#EA3457"
   class=""
   data-original="#EA3457"
   r="30.719999"
   cy="331.09299"
   cx="341.33301"
   style="fill:#ffffff" />
	<path
   inkscape:connector-curvature="0"
   id="path34"
   data-old_color="#EA3457"
   class=""
   data-original="#EA3457"
   d="m 341.333,365.227 c -18.821,0 -34.133,-15.312 -34.133,-34.133 0,-18.821 15.312,-34.133 34.133,-34.133 18.821,0 34.133,15.312 34.133,34.133 10e-4,18.82 -15.312,34.133 -34.133,34.133 z m 0,-61.44 c -15.056,0 -27.307,12.25 -27.307,27.307 0,15.056 12.25,27.307 27.307,27.307 15.057,0 27.307,-12.25 27.307,-27.307 0,-15.057 -12.25,-27.307 -27.307,-27.307 z"
   style="fill:#ffffff" />
</g><g
       transform="matrix(0.5,0,0,0.5,0,216.7465)"
       id="g46">
	<path
   inkscape:connector-curvature="0"
   id="path38"
   data-old_color="#602F75"
   class=""
   data-original="#602F75"
   d="m 68.267,392.533 c -3.77,0 -6.827,-3.057 -6.827,-6.827 v -102.4 c 0,-3.77 3.057,-6.827 6.827,-6.827 3.77,0 6.827,3.057 6.827,6.827 v 102.4 c -10e-4,3.771 -3.057,6.827 -6.827,6.827 z"
   style="fill:#444444" />
	<path
   inkscape:connector-curvature="0"
   id="path40"
   data-old_color="#602F75"
   class=""
   data-original="#602F75"
   d="m 102.069,337.92 c -3.77,0 -6.827,-3.057 -6.827,-6.827 0,-3.77 3.057,-6.827 6.827,-6.827 1.033,0 2.07,-0.06 3.07,-0.183 2.045,-0.249 4.026,-0.754 5.898,-1.505 7.2,-2.862 11.841,-8.895 11.841,-15.375 0.002,-9.412 -9.334,-17.07 -20.809,-17.07 H 68.267 c -3.77,0 -6.827,-3.057 -6.827,-6.827 0,-3.77 3.057,-6.827 6.827,-6.827 h 33.802 c 19.004,0 34.464,13.78 34.464,30.715 0,12.112 -8.021,23.129 -20.434,28.064 -2.954,1.184 -6.089,1.985 -9.3,2.376 -1.534,0.19 -3.136,0.286 -4.73,0.286 z"
   style="fill:#444444" />
	<path
   inkscape:connector-curvature="0"
   id="path42"
   data-old_color="#602F75"
   class=""
   data-original="#602F75"
   d="M 116.692,392.533 H 68.267 c -3.77,0 -6.827,-3.057 -6.827,-6.827 0,-3.77 3.057,-6.827 6.827,-6.827 h 48.425 c 10.941,0 19.842,-9.185 19.842,-20.477 0,-11.295 -8.902,-20.483 -19.842,-20.483 H 68.267 c -3.77,0 -6.827,-3.057 -6.827,-6.827 0,-3.77 3.057,-6.827 6.827,-6.827 h 48.425 c 18.47,0 33.495,15.311 33.495,34.128 0,18.826 -15.026,34.14 -33.495,34.14 z"
   style="fill:#444444" />
	<path
   inkscape:connector-curvature="0"
   id="path44"
   data-old_color="#602F75"
   class=""
   data-original="#602F75"
   d="m 341.149,392.533 c -33.777,0 -61.256,-27.563 -61.256,-61.44 0,-33.877 27.479,-61.44 61.256,-61.44 12.832,0 25.114,3.936 35.516,11.382 3.065,2.195 3.772,6.46 1.577,9.525 -2.195,3.065 -6.46,3.772 -9.525,1.577 -8.069,-5.777 -17.603,-8.83 -27.568,-8.83 -26.249,0 -47.602,21.437 -47.602,47.787 0,26.351 21.354,47.787 47.602,47.787 10.912,0 21.565,-3.796 29.998,-10.687 2.92,-2.386 7.221,-1.952 9.605,0.966 2.386,2.92 1.954,7.219 -0.966,9.605 -10.863,8.879 -24.584,13.768 -38.637,13.768 z"
   style="fill:#444444" />
</g></g></g> </svg>