<?xml version="1.0" encoding="UTF-8" standalone="no"?>
<svg
   xmlns:dc="http://purl.org/dc/elements/1.1/"
   xmlns:cc="http://creativecommons.org/ns#"
   xmlns:rdf="http://www.w3.org/1999/02/22-rdf-syntax-ns#"
   xmlns:svg="http://www.w3.org/2000/svg"
   xmlns="http://www.w3.org/2000/svg"
   xmlns:sodipodi="http://sodipodi.sourceforge.net/DTD/sodipodi-0.dtd"
   xmlns:inkscape="http://www.inkscape.org/namespaces/inkscape"
   id="Layer_1"
   height="512"
   viewBox="0 0 512 512"
   width="512"
   data-name="Layer 1"
   version="1.1"
   sodipodi:docname="bebe-black.svg"
   inkscape:version="0.92.3 (2405546, 2018-03-11)">
  <metadata
     id="metadata27">
    <rdf:RDF>
      <cc:Work
         rdf:about="">
        <dc:format>image/svg+xml</dc:format>
        <dc:type
           rdf:resource="http://purl.org/dc/dcmitype/StillImage" />
        <dc:title></dc:title>
      </cc:Work>
    </rdf:RDF>
  </metadata>
  <defs
     id="defs25" />
  <sodipodi:namedview
     pagecolor="#ffffff"
     bordercolor="#666666"
     borderopacity="1"
     objecttolerance="10"
     gridtolerance="10"
     guidetolerance="10"
     inkscape:pageopacity="0"
     inkscape:pageshadow="2"
     inkscape:window-width="1366"
     inkscape:window-height="715"
     id="namedview23"
     showgrid="false"
     inkscape:zoom="0.4609375"
     inkscape:cx="256"
     inkscape:cy="256"
     inkscape:window-x="-8"
     inkscape:window-y="-8"
     inkscape:window-maximized="1"
     inkscape:current-layer="Layer_1" />
  <path
     d="m173.849 393.8a179.252 179.252 0 0 1 -63.41-96.457 6.959 6.959 0 0 0 -5.408-5.085 39.356 39.356 0 0 1 0-77.337 6.962 6.962 0 0 0 5.408-5.086 180.454 180.454 0 0 1 165.485-134.535c-3.316-.176-6.649-.273-10-.273a180.563 180.563 0 0 0 -175.485 134.809 6.962 6.962 0 0 1 -5.408 5.086 39.356 39.356 0 0 0 0 77.337 6.959 6.959 0 0 1 5.408 5.085 180.563 180.563 0 0 0 175.486 134.806c3.35 0 6.683-.1 10-.273a180.239 180.239 0 0 1 -102.076-38.077z"
     fill="#d4e1f4"
     id="path2" />
  <g
     fill="#0635c9"
     id="g18"
     style="fill:#444444;fill-opacity:1">
    <path
       d="m318.8 251.327a25.45 25.45 0 1 0 25.45-25.45 25.479 25.479 0 0 0 -25.45 25.45zm25.45-11.45a11.45 11.45 0 1 1 -11.45 11.45 11.463 11.463 0 0 1 11.445-11.45z"
       id="path4"
       style="fill:#444444;fill-opacity:1" />
    <path
       d="m167.755 270.694a25.45 25.45 0 1 0 -25.449-25.449 25.479 25.479 0 0 0 25.449 25.449zm0-36.9a11.45 11.45 0 1 1 -11.449 11.45 11.464 11.464 0 0 1 11.449-11.444z"
       id="path6"
       style="fill:#444444;fill-opacity:1" />
    <path
       d="m187 163.709a6.979 6.979 0 0 0 4.95-2.05l34.15-34.144a7 7 0 1 0 -9.9-9.9l-34.147 34.145a7 7 0 0 0 4.947 11.949z"
       id="path8"
       style="fill:#444444;fill-opacity:1" />
    <path
       d="m236.252 163.709a6.979 6.979 0 0 0 4.95-2.05l34.144-34.144a7 7 0 1 0 -9.9-9.9l-34.146 34.145a7 7 0 0 0 4.95 11.949z"
       id="path10"
       style="fill:#444444;fill-opacity:1" />
    <path
       d="m285.5 163.709a6.977 6.977 0 0 0 4.95-2.05l34.15-34.144a7 7 0 0 0 -9.9-9.9l-34.148 34.145a7 7 0 0 0 4.949 11.949z"
       id="path12"
       style="fill:#444444;fill-opacity:1" />
    <path
       d="m199 347.072a57 57 0 1 0 57-57 57.064 57.064 0 0 0 -57 57zm100 0a43 43 0 1 1 -43-43 43.048 43.048 0 0 1 43 43z"
       id="path14"
       style="fill:#444444;fill-opacity:1" />
    <path
       d="m234 347.072a22 22 0 1 0 22-22 22.025 22.025 0 0 0 -22 22zm30 0a8 8 0 1 1 -8-8 8.009 8.009 0 0 1 8 8z"
       id="path16"
       style="fill:#444444;fill-opacity:1" />
  </g>
  <path
     d="m434.68 206.434a186.518 186.518 0 0 0 -63.905-96.064 185.507 185.507 0 0 0 -229.707.012 186.5 186.5 0 0 0 -63.9 96.1 51.619 51.619 0 0 0 0 99.032 186.5 186.5 0 0 0 63.9 96.1 185.507 185.507 0 0 0 229.707.012 186.518 186.518 0 0 0 63.905-96.064 51.628 51.628 0 0 0 0-99.132zm-7.063 86.457a7 7 0 0 0 -5.429 5.156 171.5 171.5 0 0 1 -332.519-.034 7 7 0 0 0 -5.407-5.154 37.611 37.611 0 0 1 0-73.718 7 7 0 0 0 5.407-5.154 171.5 171.5 0 0 1 332.519-.034 7 7 0 0 0 5.429 5.156 37.621 37.621 0 0 1 0 73.782z"
     fill="#1ae5be"
     id="path20"
     style="fill:#444444;fill-opacity:1" />
</svg>
