<?xml version="1.0" encoding="UTF-8" standalone="no"?>
<svg
   xmlns:dc="http://purl.org/dc/elements/1.1/"
   xmlns:cc="http://creativecommons.org/ns#"
   xmlns:rdf="http://www.w3.org/1999/02/22-rdf-syntax-ns#"
   xmlns:svg="http://www.w3.org/2000/svg"
   xmlns="http://www.w3.org/2000/svg"
   xmlns:sodipodi="http://sodipodi.sourceforge.net/DTD/sodipodi-0.dtd"
   xmlns:inkscape="http://www.inkscape.org/namespaces/inkscape"
   id="Layer_1"
   data-name="Layer 1"
   viewBox="0 0 512 512"
   width="512"
   height="512"
   version="1.1"
   sodipodi:docname="icon-escola.svg"
   inkscape:version="0.92.3 (2405546, 2018-03-11)">
  <metadata
     id="metadata21">
    <rdf:RDF>
      <cc:Work
         rdf:about="">
        <dc:format>image/svg+xml</dc:format>
        <dc:type
           rdf:resource="http://purl.org/dc/dcmitype/StillImage" />
      </cc:Work>
    </rdf:RDF>
  </metadata>
  <defs
     id="defs19" />
  <sodipodi:namedview
     pagecolor="#ffffff"
     bordercolor="#666666"
     borderopacity="1"
     objecttolerance="10"
     gridtolerance="10"
     guidetolerance="10"
     inkscape:pageopacity="0"
     inkscape:pageshadow="2"
     inkscape:window-width="1366"
     inkscape:window-height="715"
     id="namedview17"
     showgrid="false"
     inkscape:zoom="0.4609375"
     inkscape:cx="256"
     inkscape:cy="256"
     inkscape:window-x="-8"
     inkscape:window-y="-8"
     inkscape:window-maximized="1"
     inkscape:current-layer="Layer_1" />
  <title
     id="title2">school</title>
  <polygon
     points="98 451 98 267.258 68 286.008 68 481 444 481 444 451 98 451"
     style="fill:#d4e1f4"
     id="polygon4" />
  <path
     d="M292,495a7.236,7.236,0,0,0,7-7.27V377.3A11.274,11.274,0,0,0,288,366H222a11.274,11.274,0,0,0-11,11.3V487.73a7.236,7.236,0,0,0,7,7.27ZM225,380h60V481H225Z"
     style="fill:#ffc205;fill-opacity:1"
     id="path6" />
  <path
     d="M484.864,273.608,371,200.711V130.689C371,117.357,360.132,107,346.8,107H165.579C152.248,107,141,117.357,141,130.689v69.577L25.966,273.6A8.774,8.774,0,0,0,22,281.191v17.217a9,9,0,0,0,13.751,7.644L54,294.709V483.73A11.247,11.247,0,0,0,65,495H447a11.247,11.247,0,0,0,11-11.27V295.294l17.238,10.746A9,9,0,0,0,489,298.4V281.188A8.954,8.954,0,0,0,484.864,273.608ZM36,283.936,141,216.86V223.9L36,289.413ZM444,481H68V286.008l73-45.623v63.949a7,7,0,0,0,14,0V130.689c0-5.612,4.968-9.689,10.579-9.689H346.8c5.611,0,10.2,4.077,10.2,9.689v174.1a7,7,0,0,0,14,0V241.048l73,45.519Zm31-191.606L371,224.551v-7.217l104,66.59Z"
     style="fill:#444444;fill-opacity:1"
     id="path8" />
  <path
     d="M414.793,328.754,259.6,231.117a7,7,0,0,0-7.443-.009L96.223,328.747A8.949,8.949,0,0,0,92,336.374v17.193a9,9,0,0,0,13.776,7.628L134,343.523v7.507a10.992,10.992,0,0,0-5,9.207v12.075a11.011,11.011,0,0,0,5.739,9.658l-4.261,79.992a11.01,11.01,0,0,0-8.478,10.7V483.73A11.247,11.247,0,0,0,133,495h37a11.247,11.247,0,0,0,11-11.27V472.658a11.016,11.016,0,0,0-7.686-10.487l-4.3-80.661a10.993,10.993,0,0,0,4.983-9.2V360.237a10.992,10.992,0,0,0-5-9.207V321.609l86.866-54.391L342,321.409V351.03a10.992,10.992,0,0,0-5,9.207v12.075a11,11,0,0,0,6.323,9.942l-4.24,79.583A11.01,11.01,0,0,0,330,472.658V483.73A11.247,11.247,0,0,0,341,495h38a11.247,11.247,0,0,0,11-11.27V472.658a11.01,11.01,0,0,0-8.092-10.6l-4.279-80.315A10.992,10.992,0,0,0,383,372.312V360.237a10.992,10.992,0,0,0-5-9.207v-6.971l27.207,17.117h0A9,9,0,0,0,419,353.558V336.372A8.956,8.956,0,0,0,414.793,328.754ZM155.093,383l4.174,79H144.514l4.174-79ZM160,363v6H143v-6Zm7,118H136v-5h31ZM155,349h-7V334.757l7-4.383Zm208.692,34,4.175,79H353.112l4.174-79ZM369,363v6H351v-6Zm7,118H344v-5h32ZM364,349h-8V330.217l8,5.033Zm41-4.5L259.6,253.029a7,7,0,0,0-7.443-.009L106,344.537v-5.394l149.866-93.837L405,339.133Z"
     style="fill:#ffc205;fill-opacity:1"
     id="path10" />
  <path
     d="M346,143a11,11,0,0,0-11-11H177a11,11,0,0,0-11,11v42a11,11,0,0,0,11,11H335a11,11,0,0,0,11-11Zm-166,3H332v37H180Z"
     style="fill:#ffc205;fill-opacity:1"
     id="path12" />
  <path
     d="M256,120.328a7,7,0,0,0,7-7V87.5c10.488,2.444,27.513,6.04,36.887,6.04.692,0,1.344-.02,1.947-.061h0c7.146-.488,13.046-3.734,16.186-8.905,3.482-5.735,3.345-13.008-.408-21.616-1.146-2.631-.089-4.562,8.14-10.161,5.251-3.573,11.786-8.019,9.947-15.4-2.187-8.784-14.433-13.31-43.678-16.14-17.94-1.736-35.2-2-35.923-2.007a7.089,7.089,0,0,0-5.014,2.015A7,7,0,0,0,249,26.252v87.076A7,7,0,0,0,256,120.328Zm63.251-80.043c-.482.334-.955.655-1.374.94-6.74,4.587-19.288,13.125-13.1,27.33,1.726,3.957,2.2,7.23,1.275,8.756-.81,1.334-3.182,2.068-5.174,2.2h0c-6.595.453-24.894-3.28-37.881-6.4V33.444c6,.211,15.091.634,24.512,1.459C306.112,36.531,315.064,38.76,319.251,40.285Z"
     style="fill:#ffc205;fill-opacity:1"
     id="path14" />
</svg>
