<svg id="Layer_1" enable-background="new 0 0 512 512" height="512" viewBox="0 0 512 512" width="512" xmlns="http://www.w3.org/2000/svg"><g><path d="m497 54.053h-226v-19.053c0-8.284-6.716-15-15-15s-15 6.716-15 15v19.053h-226c-8.284 0-15 6.716-15 15v55.929c0 8.284 6.716 15 15 15h84.856v45.329h-16.142c-8.284 0-15 6.716-15 15s6.716 15 15 15h27.537l-38.453 40.801c-4.105 4.356-5.229 10.737-2.855 16.233 2.372 5.495 7.785 9.055 13.771 9.055h62.285c8.284 0 15-6.716 15-15s-6.716-15-15-15h-27.537l38.453-40.801c4.105-4.356 5.229-10.737 2.855-16.233-2.372-5.495-7.785-9.055-13.771-9.055h-16.143v-45.329h111.144v108.303l-36.482 62.187-69.14 12.95c-5.604 1.049-10.127 5.185-11.675 10.671s.148 11.377 4.378 15.199l52.63 47.578-12.366 77.775c-.895 5.621 1.471 11.265 6.105 14.568 4.635 3.306 10.742 3.701 15.763 1.024l65.787-35.062 65.787 35.063c2.214 1.18 4.638 1.763 7.054 1.763 3.065 0 6.117-.938 8.709-2.787 4.635-3.304 7-8.947 6.105-14.568l-12.366-77.775 52.63-47.578c4.229-3.822 5.926-9.713 4.378-15.199s-6.071-9.622-11.675-10.671l-69.14-12.95-36.482-62.189v-108.303h110.494v45.329h-16.143c-8.284 0-15 6.716-15 15s6.716 15 15 15h27.537l-38.453 40.801c-4.105 4.356-5.229 10.737-2.855 16.233 2.372 5.495 7.785 9.055 13.771 9.055h62.286c8.284 0 15-6.716 15-15s-6.716-15-15-15h-27.537l38.453-40.801c4.105-4.356 5.229-10.737 2.855-16.232-2.372-5.496-7.785-9.056-13.771-9.056h-16.144v-45.329h85.507c8.284 0 15-6.716 15-15v-55.928c0-8.284-6.716-15-15-15zm-201.759 284.646 46.106 8.636-36.208 32.732c-3.763 3.401-5.552 8.474-4.755 13.482l8.909 56.034-46.239-24.644c-2.204-1.175-4.63-1.763-7.055-1.763s-4.851.588-7.055 1.763l-46.239 24.644 8.909-56.034c.797-5.009-.992-10.081-4.755-13.482l-36.208-32.732 46.106-8.636c4.268-.799 7.979-3.408 10.176-7.153l29.067-49.544 29.065 49.544c2.197 3.745 5.909 6.354 10.176 7.153zm186.759-228.718h-452v-25.928h452z"/></g></svg>