<?xml version="1.0" encoding="UTF-8" standalone="no"?>
<svg
   xmlns:dc="http://purl.org/dc/elements/1.1/"
   xmlns:cc="http://creativecommons.org/ns#"
   xmlns:rdf="http://www.w3.org/1999/02/22-rdf-syntax-ns#"
   xmlns:svg="http://www.w3.org/2000/svg"
   xmlns="http://www.w3.org/2000/svg"
   xmlns:sodipodi="http://sodipodi.sourceforge.net/DTD/sodipodi-0.dtd"
   xmlns:inkscape="http://www.inkscape.org/namespaces/inkscape"
   version="1.1"
   id="Layer_1"
   x="0px"
   y="0px"
   viewBox="0 0 392.533 392.533"
   style="enable-background:new 0 0 392.533 392.533;"
   xml:space="preserve"
   width="512px"
   height="512px"
   class=""
   sodipodi:docname="img-perfi-320l.svg"
   inkscape:version="0.92.3 (2405546, 2018-03-11)"><metadata
   id="metadata37"><rdf:RDF><cc:Work
       rdf:about=""><dc:format>image/svg+xml</dc:format><dc:type
         rdf:resource="http://purl.org/dc/dcmitype/StillImage" /><dc:title></dc:title></cc:Work></rdf:RDF></metadata><defs
   id="defs35" /><sodipodi:namedview
   pagecolor="#ffffff"
   bordercolor="#666666"
   borderopacity="1"
   objecttolerance="10"
   gridtolerance="10"
   guidetolerance="10"
   inkscape:pageopacity="0"
   inkscape:pageshadow="2"
   inkscape:window-width="1366"
   inkscape:window-height="715"
   id="namedview33"
   showgrid="false"
   inkscape:zoom="0.4609375"
   inkscape:cx="256"
   inkscape:cy="256"
   inkscape:window-x="-8"
   inkscape:window-y="-8"
   inkscape:window-maximized="1"
   inkscape:current-layer="Layer_1" /><g
   id="g30"
   transform="matrix(0.625,0,0,0.625,71.533218,75.679027)"><path
     style="fill:#ffffff"
     d="m 36.17,113.519 c -7.887,0 -14.352,6.4 -14.352,14.352 v 228.59 c 0,7.887 6.4,14.351 14.352,14.351 h 320.194 c 7.887,0 14.352,-6.4 14.352,-14.352 V 127.806 c 0,-7.887 -6.4,-14.352 -14.352,-14.352 h -90.958 v 17.131 c 0,6.012 -4.848,10.925 -10.925,10.925 H 138.117 c -6.012,0 -10.925,-4.848 -10.925,-10.925 V 113.518 H 36.17 Z"
     data-original="#FFFFFF"
     class=""
     id="path2"
     inkscape:connector-curvature="0" /><path
     style="fill:#e5efef"
     d="m 43.604,146.166 v 191.871 c 0,6.012 4.848,10.925 10.925,10.925 h 283.539 c 6.012,0 10.925,-4.848 10.925,-10.925 V 146.166 c 0,-6.012 -4.848,-10.925 -10.925,-10.925 h -73.826 c -1.745,3.62 -5.495,6.206 -9.826,6.206 H 138.117 c -4.331,0 -8.016,-2.521 -9.826,-6.206 H 54.594 c -6.012,0.064 -10.99,4.913 -10.99,10.925 z"
     data-original="#56ACE0"
     class="active-path"
     data-old_color="#56ACE0"
     id="path4"
     inkscape:connector-curvature="0" /><path
     style="fill:#ffc10d"
     d="m 121.891,279.208 c -20.622,0 -38.012,13.511 -43.83,32.388 h 87.531 c -5.689,-18.877 -23.144,-32.388 -43.701,-32.388 z"
     data-original="#FFC10D"
     class=""
     id="path6"
     inkscape:connector-curvature="0" /><path
     style="fill:#444444"
     d="m 121.891,257.358 c -36.267,0 -65.939,28.38 -67.556,64.582 0,5.43 4.59,11.378 10.925,11.378 h 113.261 c 7.176,0 10.667,-5.042 10.925,-11.378 -1.616,-36.203 -31.289,-64.582 -67.555,-64.582 z m -43.83,54.173 c 5.689,-18.877 23.208,-32.388 43.83,-32.388 20.558,0 38.012,13.511 43.83,32.388 z"
     data-original="#194F82"
     class=""
     data-old_color="#194F82"
     id="path8"
     inkscape:connector-curvature="0" /><path
     style="fill:#ffc10d"
     d="m 121.891,192.776 c -9.374,0 -16.937,7.564 -16.937,16.937 0,9.373 7.564,16.937 16.937,16.937 9.373,0 16.937,-7.564 16.937,-16.937 0,-9.374 -7.693,-16.937 -16.937,-16.937 z"
     data-original="#FFC10D"
     class=""
     id="path10"
     inkscape:connector-curvature="0" /><path
     style="fill:#444444"
     d="m 121.891,170.99 c -21.333,0 -38.723,17.39 -38.723,38.723 0,21.333 17.39,38.723 38.723,38.723 21.333,0 38.723,-17.39 38.723,-38.723 0,-21.333 -17.39,-38.723 -38.723,-38.723 z m 0,55.596 c -9.374,0 -16.937,-7.564 -16.937,-16.937 0,-9.373 7.564,-16.937 16.937,-16.937 9.373,0 16.937,7.564 16.937,16.937 0,9.309 -7.693,16.937 -16.937,16.937 z"
     data-original="#194F82"
     class=""
     data-old_color="#194F82"
     id="path12"
     inkscape:connector-curvature="0" /><g
     id="g18">
	<rect
   x="148.978"
   y="85.462997"
   style="fill:#ffc10d"
   width="94.513"
   height="34.132999"
   data-original="#FFC10D"
   class=""
   id="rect14" />
	<rect
   x="177.616"
   y="21.785999"
   style="fill:#ffc10d"
   width="37.300999"
   height="41.890999"
   data-original="#FFC10D"
   class=""
   id="rect16" />
</g><g
     id="g28">
	<path
   style="fill:#444444"
   d="M 327.273,181.786 H 215.822 c -6.012,0 -10.925,4.848 -10.925,10.925 0,6.012 4.848,10.925 10.925,10.925 h 111.451 c 6.012,0 10.925,-4.848 10.925,-10.925 0,-6.012 -4.913,-10.925 -10.925,-10.925 z"
   data-original="#194F82"
   class=""
   data-old_color="#194F82"
   id="path20"
   inkscape:connector-curvature="0" />
	<path
   style="fill:#444444"
   d="M 327.273,245.333 H 215.822 c -6.012,0 -10.925,4.848 -10.925,10.925 0,6.077 4.848,10.925 10.925,10.925 h 111.451 c 6.012,0 10.925,-4.848 10.925,-10.925 0,-6.076 -4.913,-10.925 -10.925,-10.925 z"
   data-original="#194F82"
   class=""
   data-old_color="#194F82"
   id="path22"
   inkscape:connector-curvature="0" />
	<path
   style="fill:#444444"
   d="M 327.273,308.751 H 215.822 c -6.012,0 -10.925,4.849 -10.925,10.925 0,6.012 4.848,10.925 10.925,10.925 h 111.451 c 6.012,0 10.925,-4.848 10.925,-10.925 0,-5.947 -4.913,-10.925 -10.925,-10.925 z"
   data-original="#194F82"
   class=""
   data-old_color="#194F82"
   id="path24"
   inkscape:connector-curvature="0" />
	<path
   style="fill:#444444"
   d="M 356.428,91.669 H 265.406 V 74.602 c 0,-6.012 -4.848,-10.925 -10.925,-10.925 H 236.768 V 10.925 C 236.768,4.913 231.919,0 225.842,0 H 166.755 C 160.743,0 155.83,4.848 155.83,10.925 v 52.752 h -17.713 c -6.012,0 -10.925,4.848 -10.925,10.925 V 91.669 H 36.17 c -19.911,0 -36.137,16.226 -36.137,36.137 v 228.59 c 0,19.911 16.226,36.137 36.137,36.137 h 320.194 c 19.911,0 36.137,-16.226 36.137,-36.137 V 127.806 C 392.566,107.895 376.339,91.669 356.428,91.669 Z M 177.616,21.786 h 37.301 v 41.891 h -37.301 z m -28.638,63.677 h 94.513 v 34.133 H 148.978 Z M 370.78,356.396 c 0,7.887 -6.4,14.352 -14.352,14.352 H 36.17 c -7.887,0 -14.352,-6.4 -14.352,-14.352 v -228.59 c 0,-7.887 6.4,-14.352 14.352,-14.352 h 91.022 v 17.131 c 0,6.012 4.848,10.925 10.925,10.925 h 116.364 c 6.012,0 10.925,-4.848 10.925,-10.925 v -17.067 h 91.022 c 7.887,0 14.352,6.4 14.352,14.352 z"
   data-original="#194F82"
   class=""
   data-old_color="#194F82"
   id="path26"
   inkscape:connector-curvature="0" />
</g></g> </svg>