<?xml version="1.0"?>
<svg xmlns="http://www.w3.org/2000/svg" xmlns:xlink="http://www.w3.org/1999/xlink" version="1.1" id="Layer_1" x="0px" y="0px" viewBox="0 0 392.533 392.533" style="enable-background:new 0 0 392.533 392.533;" xml:space="preserve" width="512px" height="512px" class=""><g><path style="fill:#FFFFFF;" d="M36.17,113.519c-7.887,0-14.352,6.4-14.352,14.352v228.59c0,7.887,6.4,14.351,14.352,14.351h320.194  c7.887,0,14.352-6.4,14.352-14.352V127.806c0-7.887-6.4-14.352-14.352-14.352h-90.958v17.131c0,6.012-4.848,10.925-10.925,10.925  H138.117c-6.012,0-10.925-4.848-10.925-10.925v-17.067H36.17z" data-original="#FFFFFF" class=""/><path style="fill:#E5EFEF" d="M43.604,146.166v191.871c0,6.012,4.848,10.925,10.925,10.925h283.539  c6.012,0,10.925-4.848,10.925-10.925V146.166c0-6.012-4.848-10.925-10.925-10.925h-73.826c-1.745,3.62-5.495,6.206-9.826,6.206  H138.117c-4.331,0-8.016-2.521-9.826-6.206H54.594C48.582,135.305,43.604,140.154,43.604,146.166z" data-original="#56ACE0" class="active-path" data-old_color="#56ACE0"/><path style="fill:#FFC10D;" d="M121.891,279.208c-20.622,0-38.012,13.511-43.83,32.388h87.531  C159.903,292.719,142.448,279.208,121.891,279.208z" data-original="#FFC10D" class=""/><path style="fill:#444444" d="M121.891,257.358c-36.267,0-65.939,28.38-67.556,64.582c0,5.43,4.59,11.378,10.925,11.378h113.261  c7.176,0,10.667-5.042,10.925-11.378C187.83,285.737,158.157,257.358,121.891,257.358z M78.061,311.531  c5.689-18.877,23.208-32.388,43.83-32.388c20.558,0,38.012,13.511,43.83,32.388H78.061z" data-original="#194F82" class="" data-old_color="#194F82"/><path style="fill:#FFC10D;" d="M121.891,192.776c-9.374,0-16.937,7.564-16.937,16.937s7.564,16.937,16.937,16.937  s16.937-7.564,16.937-16.937C138.828,200.339,131.135,192.776,121.891,192.776z" data-original="#FFC10D" class=""/><path style="fill:#444444" d="M121.891,170.99c-21.333,0-38.723,17.39-38.723,38.723s17.39,38.723,38.723,38.723  s38.723-17.39,38.723-38.723S143.224,170.99,121.891,170.99z M121.891,226.586c-9.374,0-16.937-7.564-16.937-16.937  s7.564-16.937,16.937-16.937s16.937,7.564,16.937,16.937C138.828,218.958,131.135,226.586,121.891,226.586z" data-original="#194F82" class="" data-old_color="#194F82"/><g>
	<rect x="148.978" y="85.463" style="fill:#FFC10D;" width="94.513" height="34.133" data-original="#FFC10D" class=""/>
	<rect x="177.616" y="21.786" style="fill:#FFC10D;" width="37.301" height="41.891" data-original="#FFC10D" class=""/>
</g><g>
	<path style="fill:#444444" d="M327.273,181.786H215.822c-6.012,0-10.925,4.848-10.925,10.925c0,6.012,4.848,10.925,10.925,10.925   h111.451c6.012,0,10.925-4.848,10.925-10.925C338.198,186.699,333.285,181.786,327.273,181.786z" data-original="#194F82" class="" data-old_color="#194F82"/>
	<path style="fill:#444444" d="M327.273,245.333H215.822c-6.012,0-10.925,4.848-10.925,10.925c0,6.077,4.848,10.925,10.925,10.925   h111.451c6.012,0,10.925-4.848,10.925-10.925C338.198,250.182,333.285,245.333,327.273,245.333z" data-original="#194F82" class="" data-old_color="#194F82"/>
	<path style="fill:#444444" d="M327.273,308.751H215.822c-6.012,0-10.925,4.849-10.925,10.925c0,6.012,4.848,10.925,10.925,10.925   h111.451c6.012,0,10.925-4.848,10.925-10.925C338.198,313.729,333.285,308.751,327.273,308.751z" data-original="#194F82" class="" data-old_color="#194F82"/>
	<path style="fill:#444444" d="M356.428,91.669h-91.022V74.602c0-6.012-4.848-10.925-10.925-10.925h-17.713V10.925   C236.768,4.913,231.919,0,225.842,0h-59.087c-6.012,0-10.925,4.848-10.925,10.925v52.752h-17.713   c-6.012,0-10.925,4.848-10.925,10.925v17.067H36.17c-19.911,0-36.137,16.226-36.137,36.137v228.59   c0,19.911,16.226,36.137,36.137,36.137h320.194c19.911,0,36.137-16.226,36.137-36.137v-228.59   C392.566,107.895,376.339,91.669,356.428,91.669z M177.616,21.786h37.301v41.891h-37.301V21.786z M148.978,85.463h94.513v34.133   h-94.513V85.463z M370.78,356.396c0,7.887-6.4,14.352-14.352,14.352H36.17c-7.887,0-14.352-6.4-14.352-14.352v-228.59   c0-7.887,6.4-14.352,14.352-14.352h91.022v17.131c0,6.012,4.848,10.925,10.925,10.925h116.364c6.012,0,10.925-4.848,10.925-10.925   v-17.067h91.022c7.887,0,14.352,6.4,14.352,14.352V356.396L370.78,356.396z" data-original="#194F82" class="" data-old_color="#194F82"/>
</g></g> </svg>
