<svg width="364" height="184" viewBox="0 0 364 184" fill="none" xmlns="http://www.w3.org/2000/svg">
<path d="M288.359 82.9355C288.359 81.658 288.249 80.733 288.029 80.1603C287.852 79.5876 287.764 79.059 287.764 78.5745C287.764 77.9137 288.117 77.3851 288.822 76.9886C289.526 76.5481 290.363 76.3278 291.333 76.3278C293.579 76.3278 295.341 76.9225 296.619 78.1119C297.94 79.2573 298.601 80.6449 298.601 82.2748V118.683C298.601 119.961 298.799 120.974 299.196 121.723C299.592 122.472 300.385 122.846 301.574 122.846C303.248 122.846 304.922 122.295 306.596 121.194C308.314 120.049 309.834 118.419 311.156 116.304C312.521 114.146 313.622 111.525 314.459 108.441C315.34 105.358 315.781 101.856 315.781 97.935C315.781 95.2038 315.561 92.9352 315.12 91.1291C314.724 89.323 314.239 87.8693 313.667 86.768C313.094 85.6227 312.477 84.7637 311.816 84.191C311.2 83.6183 310.671 83.1558 310.231 82.8034C309.878 82.5391 309.482 82.3849 309.041 82.3408C308.601 82.2527 308.38 82.0105 308.38 81.614C308.38 80.9973 308.535 80.3145 308.843 79.5656C309.195 78.7727 309.636 78.0458 310.164 77.3851C310.693 76.6803 311.288 76.1076 311.949 75.6671C312.609 75.1825 313.27 74.9402 313.931 74.9402C315.296 74.9402 316.684 75.623 318.094 76.9886C319.503 78.3102 320.781 80.0722 321.926 82.2748C323.116 84.4773 324.085 86.9883 324.834 89.8075C325.582 92.5828 325.957 95.4241 325.957 98.3315C325.957 102.913 325.34 107.23 324.107 111.283C322.873 115.335 321.111 118.881 318.821 121.921C316.574 124.96 313.843 127.361 310.627 129.123C307.411 130.885 303.821 131.766 299.856 131.766C297.698 131.766 295.87 131.414 294.372 130.709C292.918 130.004 291.751 129.057 290.87 127.868C289.989 126.678 289.35 125.291 288.954 123.705C288.557 122.075 288.359 120.357 288.359 118.551V82.9355ZM339.503 62.9142C338.401 62.9142 337.344 62.694 336.331 62.2535C335.362 61.8129 334.503 61.2183 333.754 60.4694C333.049 59.7205 332.476 58.8615 332.036 57.8924C331.595 56.8792 331.375 55.7999 331.375 54.6546C331.375 53.4652 331.595 52.3639 332.036 51.3508C332.476 50.3376 333.049 49.4786 333.754 48.7738C334.503 48.0249 335.362 47.4522 336.331 47.0558C337.344 46.6153 338.401 46.395 339.503 46.395C340.692 46.395 341.793 46.6153 342.806 47.0558C343.82 47.4522 344.679 48.0249 345.383 48.7738C346.132 49.4786 346.705 50.3376 347.101 51.3508C347.542 52.3639 347.762 53.4652 347.762 54.6546C347.762 55.7999 347.542 56.8792 347.101 57.8924C346.705 58.8615 346.132 59.7205 345.383 60.4694C344.679 61.2183 343.82 61.8129 342.806 62.2535C341.793 62.694 340.692 62.9142 339.503 62.9142ZM342.608 116.635C342.608 116.943 342.63 117.45 342.674 118.155C342.718 118.815 342.851 119.498 343.071 120.203C343.291 120.908 343.643 121.524 344.128 122.053C344.613 122.582 345.295 122.846 346.176 122.846C347.498 122.846 348.643 122.361 349.612 121.392C350.626 120.423 351.485 119.212 352.189 117.758C352.938 116.304 353.555 114.741 354.04 113.067C354.524 111.349 354.921 109.741 355.229 108.243C355.493 106.877 355.89 105.886 356.418 105.27C356.991 104.653 357.586 104.322 358.202 104.278C358.863 104.19 359.502 104.344 360.119 104.741C360.779 105.137 361.352 105.666 361.837 106.327C362.365 106.943 362.74 107.648 362.96 108.441C363.224 109.234 363.268 109.983 363.092 110.688C362.475 112.934 361.66 115.291 360.647 117.758C359.678 120.225 358.423 122.494 356.881 124.564C355.339 126.634 353.489 128.352 351.33 129.718C349.172 131.084 346.639 131.766 343.732 131.766C341.925 131.766 340.318 131.414 338.908 130.709C337.498 130.048 336.309 129.145 335.34 128C334.371 126.855 333.622 125.511 333.093 123.969C332.609 122.428 332.366 120.798 332.366 119.08V82.9355C332.366 81.658 332.256 80.733 332.036 80.1603C331.86 79.5876 331.772 79.059 331.772 78.5745C331.772 77.9137 332.124 77.3851 332.829 76.9886C333.534 76.5481 334.371 76.3278 335.34 76.3278C337.586 76.3278 339.348 76.9225 340.626 78.1119C341.947 79.2573 342.608 80.6449 342.608 82.2748V116.635Z" fill="black"/>
<path d="M184.778 64.3679C185.791 64.456 186.914 64.5221 188.148 64.5662C189.205 64.6543 190.483 64.7203 191.98 64.7644C193.478 64.7644 195.152 64.7864 197.002 64.8305V41.9018C197.002 40.9326 196.914 40.1617 196.738 39.5891C196.606 39.0164 196.452 38.5759 196.275 38.2675C196.143 37.9151 195.989 37.6508 195.813 37.4746C195.681 37.2544 195.615 37.0341 195.615 36.8138C195.615 36.5495 195.747 36.3293 196.011 36.1531C196.275 35.9769 196.628 35.8227 197.068 35.6905C197.509 35.5584 197.971 35.4703 198.456 35.4262C198.984 35.3381 199.491 35.2941 199.976 35.2941C202.222 35.2941 203.984 35.8888 205.262 37.0781C206.583 38.2235 207.244 39.6111 207.244 41.241V64.9626C211.385 64.9626 215.746 64.9186 220.327 64.8305C224.953 64.7424 229.578 64.5882 234.203 64.3679C234.82 63.7072 235.305 63.4649 235.657 63.6411C236.054 63.8173 236.296 64.2358 236.384 64.8965C236.516 65.5573 236.538 66.3723 236.45 67.3414C236.362 68.3105 236.186 69.2576 235.921 70.1827C235.657 71.0637 235.283 71.8346 234.798 72.4954C234.358 73.1562 233.851 73.4865 233.278 73.4865C227.86 73.6187 223.058 73.7068 218.874 73.7508C214.733 73.7508 210.856 73.7508 207.244 73.7508V116.635C207.244 118.837 207.663 120.423 208.5 121.392C209.337 122.361 210.46 122.846 211.869 122.846C213.235 122.846 214.402 122.361 215.372 121.392C216.385 120.423 217.244 119.212 217.949 117.758C218.697 116.304 219.292 114.741 219.733 113.067C220.217 111.349 220.614 109.741 220.922 108.243C221.186 106.833 221.627 105.82 222.244 105.203C222.86 104.543 223.499 104.212 224.16 104.212C224.688 104.212 225.239 104.389 225.812 104.741C226.384 105.049 226.891 105.468 227.331 105.996C227.816 106.525 228.19 107.12 228.455 107.78C228.763 108.441 228.917 109.102 228.917 109.763C228.917 109.851 228.917 109.961 228.917 110.093C228.917 110.225 228.873 110.424 228.785 110.688C228.212 112.934 227.42 115.291 226.406 117.758C225.437 120.225 224.16 122.494 222.574 124.564C221.032 126.634 219.182 128.352 217.023 129.718C214.865 131.084 212.332 131.766 209.425 131.766C207.619 131.766 205.945 131.48 204.403 130.907C202.905 130.379 201.606 129.498 200.504 128.264C199.403 127.075 198.544 125.533 197.927 123.639C197.311 121.745 197.002 119.454 197.002 116.767V73.7508C195.504 73.7508 194.161 73.7508 192.971 73.7508C191.826 73.7068 190.857 73.6627 190.064 73.6187C189.139 73.5746 188.324 73.5306 187.619 73.4865C186.562 73.4865 185.637 73.024 184.844 72.0989C184.007 71.1298 183.434 70.0726 183.126 68.9272C182.774 67.7819 182.73 66.7467 182.994 65.8216C183.214 64.8525 183.809 64.3679 184.778 64.3679ZM252.705 88.6182C252.705 91.1291 252.264 93.7061 251.383 96.3492C250.546 98.9922 249.269 101.503 247.551 103.882C245.877 106.217 243.785 108.331 241.274 110.225C238.807 112.075 235.943 113.485 232.684 114.454C233.124 115.6 233.697 116.701 234.402 117.758C235.151 118.771 236.032 119.652 237.045 120.401C238.058 121.15 239.225 121.745 240.547 122.185C241.912 122.626 243.476 122.846 245.238 122.846C247.881 122.846 250.15 122.361 252.044 121.392C253.938 120.379 255.524 119.058 256.802 117.428C258.123 115.798 259.181 113.97 259.973 111.943C260.766 109.917 261.361 107.869 261.758 105.798C262.066 104.3 262.683 103.309 263.608 102.825C264.577 102.296 265.546 102.164 266.515 102.428C267.528 102.693 268.387 103.265 269.092 104.146C269.841 104.983 270.149 105.996 270.017 107.186C269.841 108.551 269.533 110.115 269.092 111.877C268.696 113.639 268.079 115.423 267.242 117.229C266.405 119.036 265.326 120.82 264.004 122.582C262.727 124.3 261.141 125.841 259.247 127.207C257.352 128.573 255.128 129.674 252.573 130.511C250.018 131.348 247.088 131.766 243.785 131.766C240.701 131.766 237.706 131.15 234.798 129.916C231.935 128.727 229.38 127.009 227.133 124.762C224.931 122.472 223.147 119.674 221.781 116.37C220.459 113.023 219.799 109.234 219.799 105.005C219.799 100.732 220.393 96.7676 221.583 93.1114C222.772 89.4111 224.336 86.2174 226.274 83.5302C228.212 80.8431 230.415 78.7507 232.882 77.2529C235.349 75.7111 237.882 74.9402 240.481 74.9402C242.375 74.9402 244.071 75.2706 245.569 75.9314C247.11 76.5922 248.41 77.5393 249.467 78.7727C250.524 79.9621 251.317 81.3937 251.846 83.0677C252.419 84.7416 252.705 86.5918 252.705 88.6182ZM230.9 104.609C230.9 105.005 230.922 105.402 230.966 105.798C231.01 106.195 231.032 106.613 231.032 107.054C232.706 106.261 234.225 105.248 235.591 104.014C236.957 102.781 238.124 101.371 239.093 99.7852C240.062 98.1993 240.811 96.4813 241.34 94.6312C241.868 92.7369 242.133 90.7767 242.133 88.7503C242.133 87.2526 241.868 86.0852 241.34 85.2482C240.855 84.4113 240.172 83.9928 239.291 83.9928C238.19 83.9928 237.199 84.3672 236.318 85.1161C235.481 85.8649 234.732 86.8561 234.071 88.0895C233.455 89.2789 232.926 90.6445 232.485 92.1863C232.089 93.684 231.759 95.2038 231.494 96.7456C231.23 98.2874 231.054 99.7631 230.966 101.173C230.878 102.538 230.856 103.684 230.9 104.609Z" fill="black"/>
<path d="M19.6968 93.5078C19.6968 90.7767 19.9832 88.4199 20.5558 86.4376C21.1726 84.4113 22.0095 82.7593 23.0668 81.4818C24.124 80.1603 25.3354 79.1912 26.701 78.5745C28.1106 77.9577 29.6084 77.6494 31.1942 77.6494C33.0003 77.6494 34.7624 78.0899 36.4804 78.9709C38.1984 79.8519 39.7181 81.1955 41.0397 83.0016C42.4053 84.8077 43.4845 87.0984 44.2775 89.8736C45.1144 92.6488 45.5329 95.9307 45.5329 99.7191C45.5329 102.362 45.3567 105.005 45.0043 107.648C44.6959 110.247 44.1894 112.736 43.4845 115.115C43.9691 115.291 44.4316 115.401 44.8721 115.445C45.3567 115.445 45.8413 115.445 46.3258 115.445C47.7795 115.445 49.057 115.181 50.1583 114.652C51.3036 114.124 52.2728 113.419 53.0657 112.538C53.9027 111.657 54.5634 110.622 55.048 109.432C55.5326 108.243 55.885 106.988 56.1052 105.666C56.1933 105.137 56.4797 104.697 56.9642 104.344C57.4928 103.992 58.0875 103.75 58.7483 103.618C59.4091 103.485 60.0919 103.485 60.7967 103.618C61.5456 103.75 62.1843 104.058 62.7129 104.543C63.2415 104.983 63.616 105.622 63.8362 106.459C64.1005 107.252 64.1005 108.287 63.8362 109.565C63.4398 111.415 62.779 113.155 61.8539 114.785C60.9729 116.37 59.8496 117.78 58.484 119.014C57.1184 120.247 55.5105 121.216 53.6604 121.921C51.8102 122.626 49.7398 122.978 47.4492 122.978C46.2157 122.978 45.0263 122.912 43.881 122.78C42.7357 122.648 41.6124 122.405 40.5111 122.053C38.8371 124.96 36.6566 127.295 33.9695 129.057C31.2823 130.863 27.9565 131.766 23.9918 131.766C20.8642 131.766 18.111 131.216 15.7322 130.114C13.3975 129.013 11.4152 127.471 9.7853 125.489C8.19946 123.463 6.98805 121.062 6.15107 118.287C5.35815 115.511 4.96169 112.472 4.96169 109.168V44.6109C4.96169 43.6418 4.87358 42.8709 4.69738 42.2982C4.56522 41.7256 4.41105 41.285 4.23484 40.9767C4.10269 40.6243 3.94851 40.36 3.7723 40.1838C3.64015 39.9635 3.57407 39.7433 3.57407 39.523C3.57407 39.2587 3.70622 39.0384 3.97053 38.8622C4.23484 38.686 4.58725 38.5318 5.02776 38.3997C5.46828 38.2675 5.93081 38.1794 6.41538 38.1354C6.94399 38.0473 7.45058 38.0032 7.93515 38.0032C10.1818 38.0032 11.9438 38.5979 13.2213 39.7873C14.5428 40.9326 15.2036 42.3203 15.2036 43.9501V107.318C15.2036 109.565 15.4018 111.635 15.7983 113.529C16.1948 115.423 16.7895 117.075 17.5824 118.485C18.3753 119.851 19.3665 120.93 20.5558 121.723C21.7893 122.472 23.2209 122.846 24.8508 122.846C26.5248 122.846 27.9565 122.428 29.1458 121.591C30.3352 120.71 31.3264 119.542 32.1193 118.088C30.181 116.723 28.441 115.137 26.8992 113.331C25.4015 111.481 24.102 109.498 23.0007 107.384C21.9435 105.225 21.1285 102.979 20.5558 100.644C19.9832 98.2654 19.6968 95.8866 19.6968 93.5078ZM28.0886 92.9792C28.0886 96.239 28.6613 99.3226 29.8066 102.23C30.996 105.137 32.5818 107.648 34.5641 109.763C34.8285 108.177 35.0047 106.613 35.0928 105.071C35.1809 103.485 35.2249 102.054 35.2249 100.776C35.2249 96.239 34.7404 92.7369 33.7712 90.2701C32.8461 87.8032 31.7669 86.5698 30.5335 86.5698C29.6524 86.5698 29.0137 87.1645 28.6172 88.3538C28.2648 89.4992 28.0886 91.041 28.0886 92.9792ZM87.2275 88.6182C87.2275 91.1291 86.7869 93.7061 85.9059 96.3492C85.0689 98.9922 83.7915 101.503 82.0735 103.882C80.3995 106.217 78.3071 108.331 75.7962 110.225C73.3293 112.075 70.4659 113.485 67.2062 114.454C67.6467 115.6 68.2193 116.701 68.9242 117.758C69.673 118.771 70.5541 119.652 71.5672 120.401C72.5804 121.15 73.7478 121.745 75.0693 122.185C76.4349 122.626 77.9987 122.846 79.7608 122.846C82.4038 122.846 84.6725 122.361 86.5667 121.392C88.4609 120.379 90.0467 119.058 91.3242 117.428C92.6458 115.798 93.703 113.97 94.4959 111.943C95.2888 109.917 95.8835 107.869 96.28 105.798C96.5884 104.3 97.2051 103.309 98.1302 102.825C99.0993 102.296 100.068 102.164 101.038 102.428C102.051 102.693 102.91 103.265 103.615 104.146C104.363 104.983 104.672 105.996 104.54 107.186C104.363 108.551 104.055 110.115 103.615 111.877C103.218 113.639 102.601 115.423 101.764 117.229C100.927 119.036 99.8482 120.82 98.5266 122.582C97.2491 124.3 95.6633 125.841 93.7691 127.207C91.8749 128.573 89.6503 129.674 87.0953 130.511C84.5403 131.348 81.6109 131.766 78.3071 131.766C75.2235 131.766 72.228 131.15 69.3206 129.916C66.4573 128.727 63.9023 127.009 61.6557 124.762C59.4531 122.472 57.669 119.674 56.3035 116.37C54.9819 113.023 54.3212 109.234 54.3212 105.005C54.3212 100.732 54.9158 96.7676 56.1052 93.1114C57.2946 89.4111 58.8584 86.2174 60.7967 83.5302C62.7349 80.8431 64.9375 78.7507 67.4044 77.2529C69.8713 75.7111 72.4042 74.9402 75.0032 74.9402C76.8974 74.9402 78.5934 75.2706 80.0912 75.9314C81.6329 76.5922 82.9325 77.5393 83.9897 78.7727C85.0469 79.9621 85.8398 81.3937 86.3685 83.0677C86.9411 84.7416 87.2275 86.5918 87.2275 88.6182ZM65.4221 104.609C65.4221 105.005 65.4441 105.402 65.4882 105.798C65.5322 106.195 65.5542 106.613 65.5542 107.054C67.2282 106.261 68.7479 105.248 70.1135 104.014C71.4791 102.781 72.6465 101.371 73.6156 99.7852C74.5847 98.1993 75.3336 96.4813 75.8622 94.6312C76.3908 92.7369 76.6552 90.7767 76.6552 88.7503C76.6552 87.2526 76.3908 86.0852 75.8622 85.2482C75.3777 84.4113 74.6949 83.9928 73.8138 83.9928C72.7126 83.9928 71.7214 84.3672 70.8404 85.1161C70.0034 85.8649 69.2545 86.8561 68.5938 88.0895C67.9771 89.2789 67.4484 90.6445 67.0079 92.1863C66.6115 93.684 66.2811 95.2038 66.0168 96.7456C65.7525 98.2874 65.5763 99.7631 65.4882 101.173C65.4001 102.538 65.378 103.684 65.4221 104.609ZM177.026 110.688C176.409 112.934 175.594 115.291 174.581 117.758C173.612 120.225 172.357 122.494 170.815 124.564C169.273 126.634 167.423 128.352 165.264 129.718C163.106 131.084 160.573 131.766 157.665 131.766C155.859 131.766 154.251 131.414 152.842 130.709C151.476 130.048 150.287 129.145 149.274 128C148.305 126.855 147.556 125.511 147.027 123.969C146.543 122.428 146.3 120.798 146.3 119.08V91.5916C146.3 90.5344 146.278 89.5432 146.234 88.6182C146.19 87.6931 146.08 86.8781 145.904 86.1733C145.728 85.4685 145.463 84.9178 145.111 84.5214C144.802 84.0809 144.362 83.8606 143.789 83.8606C142.864 83.8606 141.741 84.5214 140.419 85.8429C139.098 87.1645 137.82 88.8825 136.587 90.9969C135.353 93.1114 134.252 95.5122 133.283 98.1993C132.314 100.842 131.741 103.507 131.565 106.195V125.952C131.565 126.612 131.543 127.295 131.499 128C131.499 128.661 131.367 129.255 131.103 129.784C130.882 130.357 130.508 130.819 129.979 131.172C129.495 131.568 128.768 131.766 127.799 131.766C127.138 131.766 126.411 131.678 125.618 131.502C124.869 131.37 124.164 131.084 123.504 130.643C122.887 130.247 122.358 129.652 121.918 128.859C121.521 128.11 121.323 127.097 121.323 125.819V91.5916C121.323 90.5344 121.279 89.5432 121.191 88.6182C121.147 87.6931 121.037 86.8781 120.861 86.1733C120.684 85.4685 120.42 84.9178 120.068 84.5214C119.759 84.0809 119.319 83.8606 118.746 83.8606C117.821 83.8606 116.698 84.5214 115.376 85.8429C114.099 87.1645 112.821 88.8825 111.544 90.9969C110.31 93.1114 109.209 95.5122 108.24 98.1993C107.315 100.842 106.742 103.507 106.522 106.195V125.952C106.522 126.612 106.5 127.295 106.456 128C106.456 128.661 106.324 129.255 106.059 129.784C105.839 130.357 105.465 130.819 104.936 131.172C104.452 131.568 103.725 131.766 102.756 131.766C102.095 131.766 101.368 131.678 100.575 131.502C99.8261 131.37 99.1213 131.084 98.4605 130.643C97.8438 130.247 97.3152 129.652 96.8747 128.859C96.4782 128.11 96.28 127.097 96.28 125.819V82.9355C96.28 81.658 96.1699 80.733 95.9496 80.1603C95.7734 79.5876 95.6853 79.059 95.6853 78.5745C95.6853 77.9137 96.0377 77.3851 96.7425 76.9886C97.4474 76.5481 98.2843 76.3278 99.2535 76.3278C101.5 76.3278 103.262 76.9225 104.54 78.1119C105.861 79.2573 106.522 80.6449 106.522 82.2748V87.9574C107.403 86.1072 108.35 84.3892 109.363 82.8034C110.42 81.2175 111.544 79.8519 112.733 78.7066C113.923 77.5172 115.178 76.5922 116.5 75.9314C117.865 75.2706 119.319 74.9402 120.861 74.9402C122.887 74.9402 124.561 75.3147 125.882 76.0635C127.248 76.8124 128.327 77.8036 129.12 79.037C129.957 80.2704 130.552 81.658 130.904 83.1998C131.257 84.6976 131.477 86.1953 131.565 87.6931C132.402 85.887 133.327 84.213 134.34 82.6712C135.353 81.1294 136.455 79.7859 137.644 78.6405C138.834 77.4952 140.089 76.5922 141.411 75.9314C142.776 75.2706 144.23 74.9402 145.772 74.9402C147.974 74.9402 149.78 75.3587 151.19 76.1957C152.6 77.0327 153.701 78.1119 154.494 79.4335C155.287 80.755 155.837 82.2307 156.146 83.8606C156.454 85.4905 156.608 87.0764 156.608 88.6182V116.635C156.608 116.943 156.63 117.45 156.674 118.155C156.718 118.815 156.851 119.498 157.071 120.203C157.291 120.908 157.621 121.524 158.062 122.053C158.546 122.582 159.229 122.846 160.11 122.846C161.476 122.846 162.643 122.361 163.612 121.392C164.626 120.423 165.485 119.212 166.189 117.758C166.938 116.304 167.555 114.741 168.04 113.067C168.524 111.349 168.921 109.741 169.229 108.243C169.493 106.833 169.912 105.82 170.484 105.203C171.101 104.543 171.762 104.212 172.467 104.212C172.995 104.212 173.524 104.389 174.053 104.741C174.625 105.049 175.132 105.468 175.572 105.996C176.057 106.525 176.431 107.12 176.696 107.78C177.004 108.441 177.158 109.102 177.158 109.763C177.158 109.851 177.158 109.961 177.158 110.093C177.158 110.225 177.114 110.424 177.026 110.688Z" fill="black"/>
<circle cx="340" cy="54" r="11" fill="#FFC906"/>
<circle cx="340" cy="54" r="11" fill="#FED700"/>
<circle cx="276.5" cy="125.5" r="6.5" fill="#FFC906"/>
<circle cx="276.5" cy="125.5" r="6.5" fill="black"/>
<circle cx="337.5" cy="65.5" r="6.5" fill="#FFC906"/>
<circle cx="337.5" cy="65.5" r="6.5" fill="black"/>
<circle cx="185.5" cy="125.5" r="6.5" fill="#FFC906"/>
<circle cx="185.5" cy="125.5" r="6.5" fill="black"/>
</svg>
