<svg width="1061" height="829" viewBox="0 0 1061 829" fill="none" xmlns="http://www.w3.org/2000/svg">
<path d="M654.688 111.1C651.69 188.092 492.079 233.377 524.167 297.551C556.011 361.241 384.54 378.387 378.171 302.451C370.822 160.375 460.477 42.7946 556.011 28.0964C590.305 15.8491 657.686 34.1083 654.688 111.1Z" fill="#F5F7F9"/>
<path d="M458.616 339.292C540.202 341.222 550.577 256.973 492.252 266.501C488.196 266.343 657.933 205.863 654.758 103.854C652.955 45.9114 596.158 10.6512 539.39 26.1439C492.562 38.926 370.975 97.5246 364.821 300.821M394.011 409.2C394.011 409.2 411.883 267.014 451.037 197.807C511.337 91.2203 594.48 94.5041 594.48 94.5041" stroke="black" stroke-width="27.1904" stroke-linecap="round"/>
<path d="M841.743 533.682C841.743 529.952 841.422 527.252 840.779 525.58C840.264 523.909 840.007 522.366 840.007 520.951C840.007 519.022 841.036 517.479 843.093 516.322C845.151 515.036 847.594 514.393 850.423 514.393C856.981 514.393 862.125 516.129 865.854 519.601C869.711 522.944 871.64 526.995 871.64 531.753V638.032C871.64 641.761 872.219 644.718 873.376 646.904C874.533 649.09 876.848 650.183 880.32 650.183C885.206 650.183 890.093 648.576 894.979 645.361C899.994 642.018 904.43 637.26 908.288 631.088C912.274 624.787 915.489 617.136 917.932 608.135C920.504 599.134 921.79 588.911 921.79 577.466C921.79 569.494 921.147 562.871 919.861 557.599C918.704 552.327 917.289 548.084 915.618 544.869C913.946 541.526 912.146 539.018 910.217 537.346C908.417 535.675 906.874 534.325 905.588 533.296C904.559 532.524 903.402 532.074 902.116 531.946C900.83 531.688 900.187 530.981 900.187 529.824C900.187 528.024 900.637 526.031 901.537 523.844C902.566 521.53 903.852 519.408 905.395 517.479C906.938 515.422 908.674 513.75 910.603 512.464C912.532 511.05 914.46 510.343 916.389 510.343C920.376 510.343 924.426 512.336 928.541 516.322C932.656 520.18 936.385 525.323 939.728 531.753C943.2 538.182 946.029 545.512 948.215 553.741C950.401 561.843 951.494 570.137 951.494 578.624C951.494 591.997 949.694 604.599 946.093 616.429C942.493 628.259 937.349 638.61 930.663 647.483C924.105 656.356 916.132 663.364 906.745 668.507C897.358 673.651 886.878 676.223 875.305 676.223C869.004 676.223 863.668 675.194 859.296 673.137C855.052 671.079 851.645 668.315 849.073 664.843C846.501 661.371 844.636 657.32 843.479 652.691C842.322 647.933 841.743 642.918 841.743 637.646V533.682ZM991.035 475.238C987.821 475.238 984.734 474.595 981.777 473.309C978.948 472.023 976.44 470.287 974.254 468.101C972.197 465.915 970.525 463.408 969.239 460.579C967.954 457.621 967.311 454.471 967.311 451.127C967.311 447.655 967.954 444.441 969.239 441.483C970.525 438.526 972.197 436.018 974.254 433.961C976.44 431.775 978.948 430.103 981.777 428.946C984.734 427.66 987.821 427.017 991.035 427.017C994.507 427.017 997.722 427.66 1000.68 428.946C1003.64 430.103 1006.14 431.775 1008.2 433.961C1010.39 436.018 1012.06 438.526 1013.22 441.483C1014.5 444.441 1015.15 447.655 1015.15 451.127C1015.15 454.471 1014.5 457.621 1013.22 460.579C1012.06 463.408 1010.39 465.915 1008.2 468.101C1006.14 470.287 1003.64 472.023 1000.68 473.309C997.722 474.595 994.507 475.238 991.035 475.238ZM1000.1 632.052C1000.1 632.952 1000.17 634.431 1000.29 636.489C1000.42 638.418 1000.81 640.411 1001.45 642.468C1002.09 644.526 1003.12 646.326 1004.54 647.869C1005.95 649.412 1007.94 650.183 1010.52 650.183C1014.37 650.183 1017.72 648.769 1020.55 645.94C1023.5 643.111 1026.01 639.575 1028.07 635.331C1030.26 631.088 1032.06 626.523 1033.47 621.637C1034.88 616.622 1036.04 611.928 1036.94 607.556C1037.71 603.57 1038.87 600.677 1040.41 598.876C1042.09 597.076 1043.82 596.112 1045.62 595.983C1047.55 595.726 1049.41 596.176 1051.22 597.333C1053.14 598.491 1054.82 600.034 1056.23 601.962C1057.77 603.763 1058.87 605.82 1059.51 608.135C1060.28 610.449 1060.41 612.635 1059.89 614.693C1058.09 621.251 1055.72 628.13 1052.76 635.331C1049.93 642.532 1046.26 649.155 1041.76 655.198C1037.26 661.242 1031.86 666.257 1025.56 670.243C1019.26 674.23 1011.87 676.223 1003.38 676.223C998.108 676.223 993.414 675.194 989.299 673.137C985.185 671.208 981.713 668.572 978.884 665.228C976.055 661.885 973.869 657.963 972.326 653.462C970.911 648.962 970.204 644.204 970.204 639.189V533.682C970.204 529.952 969.882 527.252 969.239 525.58C968.725 523.909 968.468 522.366 968.468 520.951C968.468 519.022 969.497 517.479 971.554 516.322C973.611 515.036 976.055 514.393 978.884 514.393C985.442 514.393 990.585 516.129 994.314 519.601C998.172 522.944 1000.1 526.995 1000.1 531.753V632.052Z" fill="black"/>
<path d="M539.381 479.481C542.339 479.738 545.618 479.931 549.218 480.06C552.304 480.317 556.033 480.51 560.405 480.638C564.777 480.638 569.664 480.703 575.065 480.831V413.901C575.065 411.072 574.807 408.821 574.293 407.15C573.907 405.478 573.457 404.192 572.943 403.292C572.557 402.263 572.107 401.492 571.593 400.977C571.207 400.334 571.014 399.692 571.014 399.049C571.014 398.277 571.4 397.634 572.171 397.12C572.943 396.605 573.972 396.155 575.257 395.77C576.543 395.384 577.894 395.127 579.308 394.998C580.851 394.741 582.33 394.612 583.744 394.612C590.302 394.612 595.446 396.348 599.175 399.82C603.033 403.163 604.962 407.214 604.962 411.972V481.217C617.049 481.217 629.779 481.089 643.153 480.831C656.654 480.574 670.156 480.124 683.658 479.481C685.458 477.552 686.873 476.845 687.902 477.359C689.059 477.874 689.766 479.095 690.023 481.024C690.409 482.953 690.473 485.332 690.216 488.161C689.959 490.99 689.445 493.755 688.673 496.455C687.902 499.027 686.809 501.277 685.394 503.206C684.108 505.135 682.63 506.099 680.958 506.099C665.141 506.485 651.125 506.742 638.909 506.871C626.822 506.871 615.506 506.871 604.962 506.871V632.052C604.962 638.482 606.183 643.111 608.626 645.94C611.07 648.769 614.349 650.183 618.463 650.183C622.45 650.183 625.857 648.769 628.686 645.94C631.644 643.111 634.151 639.575 636.209 635.331C638.395 631.088 640.131 626.523 641.417 621.637C642.831 616.622 643.988 611.928 644.889 607.556C645.66 603.441 646.946 600.484 648.746 598.683C650.546 596.755 652.411 595.79 654.34 595.79C655.883 595.79 657.49 596.305 659.162 597.333C660.834 598.233 662.312 599.455 663.598 600.998C665.013 602.541 666.106 604.277 666.877 606.206C667.777 608.135 668.228 610.064 668.228 611.992C668.228 612.25 668.228 612.571 668.228 612.957C668.228 613.343 668.099 613.921 667.842 614.693C666.17 621.251 663.855 628.13 660.898 635.331C658.069 642.532 654.34 649.155 649.711 655.198C645.21 661.242 639.809 666.257 633.508 670.243C627.208 674.23 619.814 676.223 611.327 676.223C606.055 676.223 601.168 675.387 596.668 673.715C592.296 672.172 588.502 669.6 585.287 666C582.073 662.528 579.565 658.027 577.765 652.498C575.965 646.969 575.065 640.282 575.065 632.438V506.871C570.693 506.871 566.771 506.871 563.299 506.871C559.955 506.742 557.126 506.614 554.812 506.485C552.111 506.356 549.732 506.228 547.675 506.099C544.589 506.099 541.889 504.749 539.574 502.049C537.131 499.22 535.459 496.134 534.559 492.79C533.53 489.447 533.402 486.425 534.173 483.725C534.816 480.896 536.552 479.481 539.381 479.481ZM737.666 550.27C737.666 557.599 736.38 565.122 733.808 572.837C731.365 580.552 727.636 587.882 722.621 594.826C717.734 601.641 711.626 607.813 704.297 613.343C697.096 618.743 688.738 622.858 679.222 625.687C680.508 629.031 682.179 632.245 684.237 635.331C686.423 638.289 688.995 640.861 691.952 643.047C694.91 645.233 698.317 646.969 702.175 648.255C706.161 649.541 710.726 650.183 715.87 650.183C723.585 650.183 730.208 648.769 735.737 645.94C741.266 642.982 745.895 639.125 749.625 634.367C753.482 629.609 756.568 624.273 758.883 618.358C761.198 612.442 762.934 606.463 764.091 600.419C764.991 596.047 766.791 593.154 769.492 591.74C772.321 590.197 775.149 589.811 777.978 590.582C780.936 591.354 783.443 593.026 785.501 595.597C787.687 598.04 788.587 600.998 788.201 604.47C787.687 608.456 786.787 613.021 785.501 618.165C784.344 623.308 782.543 628.516 780.1 633.788C777.657 639.06 774.507 644.268 770.649 649.412C766.92 654.427 762.291 658.928 756.761 662.914C751.232 666.9 744.738 670.115 737.28 672.558C729.822 675.001 721.271 676.223 711.626 676.223C702.625 676.223 693.881 674.423 685.394 670.822C677.036 667.35 669.578 662.335 663.02 655.777C656.59 649.09 651.382 640.925 647.396 631.281C643.538 621.508 641.61 610.449 641.61 598.105C641.61 585.632 643.345 574.059 646.817 563.386C650.289 552.584 654.854 543.261 660.512 535.418C666.17 527.574 672.6 521.466 679.801 517.094C687.002 512.593 694.395 510.343 701.982 510.343C707.512 510.343 712.462 511.307 716.834 513.236C721.335 515.165 725.128 517.929 728.214 521.53C731.301 525.002 733.615 529.181 735.158 534.067C736.83 538.954 737.666 544.354 737.666 550.27ZM674.014 596.947C674.014 598.105 674.078 599.262 674.207 600.419C674.336 601.577 674.4 602.798 674.4 604.084C679.286 601.77 683.723 598.812 687.709 595.212C691.695 591.611 695.103 587.496 697.932 582.867C700.761 578.238 702.947 573.223 704.49 567.822C706.033 562.293 706.804 556.57 706.804 550.655C706.804 546.283 706.033 542.876 704.49 540.433C703.075 537.989 701.082 536.768 698.51 536.768C695.296 536.768 692.402 537.861 689.831 540.047C687.387 542.233 685.201 545.126 683.272 548.727C681.472 552.198 679.929 556.185 678.643 560.685C677.486 565.057 676.522 569.494 675.75 573.994C674.978 578.495 674.464 582.803 674.207 586.918C673.95 590.904 673.885 594.247 674.014 596.947Z" fill="black"/>
<path d="M57.4967 564.543C57.4967 556.57 58.3325 549.691 60.0042 543.904C61.8044 537.989 64.2476 533.167 67.3338 529.438C70.4199 525.58 73.9561 522.751 77.9424 520.951C82.0573 519.151 86.4293 518.251 91.0585 518.251C96.3307 518.251 101.474 519.537 106.489 522.108C111.504 524.68 115.941 528.602 119.798 533.874C123.784 539.147 126.935 545.833 129.25 553.934C131.693 562.035 132.914 571.615 132.914 582.674C132.914 590.389 132.4 598.105 131.371 605.82C130.471 613.407 128.992 620.672 126.935 627.616C128.349 628.13 129.7 628.452 130.985 628.58C132.4 628.58 133.814 628.58 135.229 628.58C139.472 628.58 143.201 627.809 146.416 626.266C149.76 624.723 152.588 622.665 154.903 620.093C157.346 617.522 159.275 614.5 160.69 611.028C162.104 607.556 163.133 603.891 163.776 600.034C164.033 598.491 164.869 597.205 166.283 596.176C167.826 595.147 169.562 594.44 171.491 594.054C173.42 593.668 175.413 593.668 177.47 594.054C179.657 594.44 181.521 595.34 183.064 596.755C184.607 598.04 185.7 599.905 186.343 602.348C187.115 604.663 187.115 607.685 186.343 611.414C185.186 616.814 183.257 621.894 180.557 626.652C177.985 631.281 174.706 635.396 170.72 638.996C166.733 642.597 162.04 645.426 156.639 647.483C151.238 649.54 145.195 650.569 138.508 650.569C134.907 650.569 131.436 650.376 128.092 649.991C124.749 649.605 121.47 648.897 118.255 647.869C113.369 656.356 107.004 663.171 99.1596 668.314C91.3157 673.587 81.6072 676.223 70.0342 676.223C60.9043 676.223 52.8675 674.615 45.9237 671.401C39.1084 668.186 33.3219 663.685 28.5641 657.899C23.9349 651.984 20.3987 644.976 17.9555 636.874C15.6409 628.773 14.4836 619.901 14.4836 610.256V421.809C14.4836 418.98 14.2264 416.73 13.7121 415.058C13.3263 413.386 12.8762 412.1 12.3619 411.2C11.9761 410.172 11.526 409.4 11.0117 408.886C10.6259 408.243 10.433 407.6 10.433 406.957C10.433 406.185 10.8188 405.542 11.5903 405.028C12.3619 404.514 13.3906 404.064 14.6765 403.678C15.9624 403.292 17.3126 403.035 18.727 402.906C20.2701 402.649 21.7489 402.52 23.1634 402.52C29.7214 402.52 34.865 404.256 38.5941 407.728C42.4518 411.072 44.3806 415.122 44.3806 419.88V604.856C44.3806 611.414 44.9592 617.457 46.1165 622.987C47.2739 628.516 49.0098 633.338 51.3244 637.453C53.639 641.439 56.5323 644.59 60.0042 646.904C63.6047 649.09 67.7838 650.183 72.5416 650.183C77.428 650.183 81.6072 648.962 85.0791 646.519C88.551 643.947 91.4443 640.539 93.7589 636.296C88.1009 632.309 83.0217 627.68 78.521 622.408C74.149 617.007 70.3556 611.221 67.1409 605.049C64.0548 598.748 61.6759 592.19 60.0042 585.374C58.3325 578.431 57.4967 571.487 57.4967 564.543ZM81.993 563C81.993 572.515 83.6646 581.517 87.0079 590.004C90.4798 598.491 95.1091 605.82 100.896 611.992C101.667 607.363 102.181 602.798 102.439 598.298C102.696 593.668 102.824 589.489 102.824 585.76C102.824 572.515 101.41 562.293 98.581 555.092C95.8806 547.891 92.7302 544.29 89.1297 544.29C86.5579 544.29 84.6933 546.026 83.536 549.498C82.5073 552.841 81.993 557.342 81.993 563ZM254.624 550.27C254.624 557.599 253.338 565.122 250.766 572.837C248.323 580.552 244.594 587.882 239.579 594.826C234.693 601.641 228.585 607.813 221.255 613.343C214.054 618.743 205.696 622.858 196.18 625.687C197.466 629.03 199.138 632.245 201.195 635.331C203.381 638.289 205.953 640.861 208.911 643.047C211.868 645.233 215.276 646.969 219.133 648.255C223.12 649.54 227.685 650.183 232.828 650.183C240.544 650.183 247.166 648.769 252.695 645.94C258.225 642.982 262.854 639.125 266.583 634.367C270.441 629.609 273.527 624.273 275.841 618.358C278.156 612.442 279.892 606.463 281.049 600.419C281.949 596.047 283.75 593.154 286.45 591.74C289.279 590.196 292.108 589.811 294.937 590.582C297.894 591.354 300.402 593.025 302.459 595.597C304.645 598.04 305.545 600.998 305.16 604.47C304.645 608.456 303.745 613.021 302.459 618.165C301.302 623.308 299.502 628.516 297.059 633.788C294.615 639.06 291.465 644.268 287.607 649.412C283.878 654.427 279.249 658.927 273.72 662.914C268.19 666.9 261.696 670.115 254.238 672.558C246.78 675.001 238.229 676.223 228.585 676.223C219.583 676.223 210.839 674.422 202.353 670.822C193.994 667.35 186.536 662.335 179.978 655.777C173.549 649.09 168.341 640.925 164.354 631.281C160.497 621.508 158.568 610.449 158.568 598.105C158.568 585.632 160.304 574.059 163.776 563.386C167.248 552.584 171.813 543.261 177.47 535.417C183.128 527.574 189.558 521.466 196.759 517.093C203.96 512.593 211.354 510.343 218.941 510.343C224.47 510.343 229.421 511.307 233.793 513.236C238.293 515.165 242.087 517.929 245.173 521.53C248.259 525.002 250.573 529.181 252.117 534.067C253.788 538.954 254.624 544.354 254.624 550.27ZM190.972 596.947C190.972 598.105 191.037 599.262 191.165 600.419C191.294 601.577 191.358 602.798 191.358 604.084C196.245 601.77 200.681 598.812 204.667 595.211C208.653 591.611 212.061 587.496 214.89 582.867C217.719 578.238 219.905 573.223 221.448 567.822C222.991 562.293 223.763 556.57 223.763 550.655C223.763 546.283 222.991 542.876 221.448 540.432C220.034 537.989 218.04 536.768 215.469 536.768C212.254 536.768 209.361 537.861 206.789 540.047C204.346 542.233 202.16 545.126 200.231 548.726C198.431 552.198 196.887 556.185 195.602 560.685C194.444 565.057 193.48 569.494 192.708 573.994C191.937 578.495 191.422 582.803 191.165 586.917C190.908 590.904 190.844 594.247 190.972 596.947ZM516.753 614.693C514.953 621.251 512.574 628.13 509.617 635.331C506.788 642.532 503.123 649.155 498.622 655.198C494.122 661.242 488.721 666.257 482.42 670.243C476.119 674.23 468.725 676.223 460.238 676.223C454.966 676.223 450.273 675.194 446.158 673.137C442.171 671.208 438.7 668.572 435.742 665.228C432.913 661.885 430.727 657.963 429.184 653.462C427.77 648.962 427.062 644.204 427.062 639.189V558.949C427.062 555.863 426.998 552.97 426.869 550.27C426.741 547.569 426.419 545.19 425.905 543.133C425.391 541.075 424.619 539.468 423.59 538.311C422.69 537.025 421.404 536.382 419.733 536.382C417.032 536.382 413.753 538.311 409.896 542.168C406.038 546.026 402.309 551.041 398.708 557.213C395.108 563.386 391.893 570.394 389.064 578.238C386.235 585.953 384.564 593.733 384.049 601.577V659.249C384.049 661.178 383.985 663.171 383.856 665.228C383.856 667.157 383.47 668.893 382.699 670.436C382.056 672.108 380.963 673.458 379.42 674.487C378.005 675.644 375.884 676.223 373.055 676.223C371.126 676.223 369.004 675.966 366.69 675.451C364.504 675.065 362.446 674.23 360.517 672.944C358.717 671.786 357.174 670.05 355.888 667.736C354.731 665.55 354.152 662.592 354.152 658.863V558.949C354.152 555.863 354.024 552.97 353.766 550.27C353.638 547.569 353.316 545.19 352.802 543.133C352.288 541.075 351.516 539.468 350.487 538.311C349.587 537.025 348.301 536.382 346.63 536.382C343.929 536.382 340.65 538.311 336.793 542.168C333.064 546.026 329.334 551.041 325.605 557.213C322.005 563.386 318.79 570.394 315.961 578.238C313.261 585.953 311.589 593.733 310.946 601.577V659.249C310.946 661.178 310.882 663.171 310.753 665.228C310.753 667.157 310.367 668.893 309.596 670.436C308.953 672.108 307.86 673.458 306.317 674.487C304.902 675.644 302.781 676.223 299.952 676.223C298.023 676.223 295.901 675.966 293.587 675.451C291.401 675.065 289.343 674.23 287.414 672.944C285.614 671.786 284.071 670.05 282.785 667.736C281.628 665.55 281.049 662.592 281.049 658.863V533.682C281.049 529.952 280.728 527.252 280.085 525.58C279.57 523.909 279.313 522.366 279.313 520.951C279.313 519.022 280.342 517.479 282.399 516.322C284.457 515.036 286.9 514.393 289.729 514.393C296.287 514.393 301.431 516.129 305.16 519.601C309.017 522.944 310.946 526.995 310.946 531.753V548.341C313.518 542.94 316.283 537.925 319.24 533.296C322.326 528.667 325.605 524.68 329.077 521.337C332.549 517.865 336.214 515.165 340.072 513.236C344.058 511.307 348.301 510.343 352.802 510.343C358.717 510.343 363.603 511.436 367.461 513.622C371.447 515.808 374.598 518.701 376.912 522.301C379.356 525.902 381.092 529.952 382.12 534.453C383.149 538.825 383.792 543.197 384.049 547.569C386.492 542.297 389.193 537.411 392.15 532.91C395.108 528.409 398.323 524.487 401.794 521.144C405.266 517.801 408.931 515.165 412.789 513.236C416.775 511.307 421.019 510.343 425.519 510.343C431.949 510.343 437.221 511.564 441.336 514.007C445.451 516.451 448.665 519.601 450.98 523.459C453.294 527.316 454.902 531.624 455.802 536.382C456.702 541.14 457.152 545.769 457.152 550.27V632.052C457.152 632.952 457.216 634.431 457.345 636.489C457.474 638.417 457.859 640.411 458.502 642.468C459.145 644.525 460.11 646.326 461.396 647.869C462.81 649.412 464.803 650.183 467.375 650.183C471.361 650.183 474.769 648.769 477.598 645.94C480.555 643.111 483.063 639.575 485.12 635.331C487.306 631.088 489.107 626.523 490.521 621.637C491.936 616.622 493.093 611.928 493.993 607.556C494.765 603.441 495.986 600.484 497.658 598.683C499.458 596.755 501.387 595.79 503.444 595.79C504.987 595.79 506.53 596.304 508.074 597.333C509.745 598.233 511.224 599.455 512.51 600.998C513.924 602.541 515.017 604.277 515.789 606.206C516.689 608.135 517.139 610.064 517.139 611.992C517.139 612.25 517.139 612.571 517.139 612.957C517.139 613.343 517.01 613.921 516.753 614.693Z" fill="black"/>
<circle cx="992.487" cy="448.859" r="32.1099" fill="#FFC906"/>
<circle cx="807.124" cy="657.573" r="18.974" fill="#FFC906"/>
<circle cx="807.124" cy="657.573" r="18.974" fill="black"/>
<circle cx="985.189" cy="482.428" r="18.974" fill="#FFC906"/>
<circle cx="985.189" cy="482.428" r="18.974" fill="black"/>
<circle cx="541.49" cy="657.573" r="18.974" fill="#FFC906"/>
<circle cx="541.49" cy="657.573" r="18.974" fill="black"/>
<path d="M354.742 786.018H334.578V801.125H358.147V807.936H326.047V758.841H357.911V765.719H334.578V779.275H354.742V786.018ZM414.924 795.291C414.924 793.133 414.16 791.47 412.631 790.301C411.125 789.132 408.394 787.952 404.437 786.76C400.481 785.569 397.334 784.243 394.996 782.781C390.522 779.972 388.286 776.307 388.286 771.789C388.286 767.833 389.893 764.573 393.107 762.01C396.345 759.448 400.537 758.166 405.685 758.166C409.102 758.166 412.148 758.796 414.823 760.055C417.498 761.313 419.6 763.112 421.128 765.45C422.657 767.765 423.421 770.339 423.421 773.171H414.924C414.924 770.609 414.115 768.608 412.496 767.169C410.9 765.708 408.607 764.978 405.617 764.978C402.83 764.978 400.661 765.573 399.11 766.765C397.581 767.956 396.817 769.62 396.817 771.755C396.817 773.554 397.648 775.06 399.312 776.274C400.975 777.465 403.718 778.634 407.539 779.78C411.361 780.904 414.429 782.197 416.745 783.658C419.06 785.097 420.757 786.76 421.836 788.649C422.915 790.514 423.455 792.706 423.455 795.224C423.455 799.315 421.881 802.575 418.734 805.002C415.61 807.408 411.361 808.61 405.988 808.61C402.437 808.61 399.166 807.959 396.176 806.655C393.209 805.328 390.893 803.508 389.23 801.192C387.589 798.877 386.768 796.179 386.768 793.1H395.299C395.299 795.887 396.221 798.045 398.064 799.574C399.908 801.102 402.549 801.867 405.988 801.867C408.956 801.867 411.181 801.271 412.665 800.079C414.171 798.866 414.924 797.269 414.924 795.291ZM492.573 791.953C492.078 797.191 490.145 801.282 486.773 804.227C483.401 807.149 478.916 808.61 473.319 808.61C469.407 808.61 465.957 807.689 462.967 805.845C460 803.98 457.707 801.338 456.088 797.921C454.47 794.505 453.627 790.537 453.559 786.018V781.433C453.559 776.802 454.38 772.722 456.021 769.193C457.662 765.663 460.011 762.943 463.068 761.032C466.148 759.122 469.7 758.166 473.724 758.166C479.141 758.166 483.502 759.639 486.807 762.584C490.111 765.528 492.033 769.687 492.573 775.06H484.075C483.671 771.53 482.637 768.99 480.973 767.439C479.332 765.866 476.916 765.079 473.724 765.079C470.014 765.079 467.16 766.439 465.159 769.159C463.181 771.856 462.169 775.824 462.124 781.062V785.412C462.124 790.717 463.068 794.763 464.957 797.55C466.867 800.338 469.655 801.732 473.319 801.732C476.668 801.732 479.186 800.979 480.872 799.472C482.558 797.966 483.626 795.46 484.075 791.953H492.573ZM563.579 784.67C563.579 789.48 562.747 793.706 561.084 797.348C559.42 800.967 557.037 803.755 553.935 805.711C550.855 807.644 547.304 808.61 543.28 808.61C539.301 808.61 535.749 807.644 532.624 805.711C529.522 803.755 527.117 800.979 525.409 797.382C523.723 793.785 522.868 789.638 522.846 784.939V782.174C522.846 777.386 523.689 773.16 525.375 769.496C527.083 765.832 529.477 763.033 532.557 761.1C535.659 759.144 539.211 758.166 543.212 758.166C547.214 758.166 550.754 759.133 553.834 761.066C556.936 762.977 559.33 765.742 561.016 769.361C562.702 772.958 563.556 777.15 563.579 781.938V784.67ZM555.048 782.107C555.048 776.667 554.014 772.497 551.946 769.597C549.9 766.697 546.989 765.247 543.212 765.247C539.526 765.247 536.637 766.697 534.546 769.597C532.478 772.475 531.422 776.555 531.377 781.837V784.67C531.377 790.065 532.422 794.235 534.513 797.18C536.626 800.124 539.548 801.597 543.28 801.597C547.056 801.597 549.956 800.158 551.979 797.281C554.025 794.403 555.048 790.2 555.048 784.67V782.107ZM604.777 801.125H627.065V807.936H596.246V758.841H604.777V801.125ZM685.933 796.505H666.915L662.936 807.936H654.068L672.613 758.841H680.268L698.847 807.936H689.945L685.933 796.505ZM669.309 789.626H683.539L676.424 769.26L669.309 789.626Z" fill="black"/>
</svg>
