<svg id="Capa_1" enable-background="new 0 0 512 512" height="512" viewBox="0 0 512 512" width="512" xmlns="http://www.w3.org/2000/svg"><path d="m15 512h482c8.284 0 15-6.716 15-15v-482c0-8.284-6.716-15-15-15h-482c-8.284 0-15 6.716-15 15v482c0 8.284 6.716 15 15 15zm15-482h452v452h-452z"/><path d="m307.383 176.327-7.52 43.842c-.965 5.627 1.349 11.315 5.968 14.671 4.618 3.356 10.741 3.799 15.797 1.142l39.372-20.7 39.372 20.699c5.085 2.672 11.206 2.194 15.797-1.142 4.619-3.356 6.933-9.043 5.968-14.671l-7.498-43.717 32.689-31.037c4.172-3.961 5.711-9.958 3.962-15.439-1.749-5.48-6.479-9.477-12.173-10.289l-44.744-6.379-18.267-39.552c-2.434-5.269-7.688-8.661-13.491-8.71-5.825-.047-11.113 3.253-13.636 8.48l-18.793 38.94-46.497 7.25c-5.614.875-10.252 4.847-11.979 10.26-1.728 5.412-.249 11.337 3.82 15.302zm35.202-35.432c4.87-.759 9.057-3.862 11.198-8.301l8.407-17.419 8.368 18.12c2.134 4.62 6.464 7.842 11.501 8.561l22.124 3.154-16.012 15.202c-3.631 3.447-5.303 8.479-4.456 13.414l3.715 21.658-19.45-10.226c-2.186-1.149-4.583-1.723-6.98-1.723s-4.795.574-6.98 1.723l-19.45 10.226 3.715-21.658c.835-4.866-.778-9.831-4.314-13.277l-16.017-15.613z"/><path d="m437 270h-151c-8.284 0-15 6.716-15 15v152c0 8.284 6.716 15 15 15h151c8.284 0 15-6.716 15-15v-152c0-8.284-6.716-15-15-15zm-15 152h-121v-122h121z"/><path d="m151.002 60c-49.92 0-91 40.429-91 90 0 49.55 41.067 90 91 90 49.626 0 90-40.374 90-90s-40.374-90-90-90zm0 149.999c-33.636 0-61-26.916-61-60s27.364-60 61-60c33.084 0 60 26.916 60 60s-26.916 60-60 60z"/><path d="m227.498 306.583-69-39.821c-4.611-2.661-10.286-2.678-14.915-.046l-70 39.821c-4.687 2.666-7.583 7.644-7.583 13.038v81.641c0 5.393 2.896 10.371 7.583 13.038l70 39.821c2.3 1.308 4.858 1.962 7.417 1.962 2.589 0 5.179-.67 7.498-2.008l69-39.821c4.642-2.679 7.502-7.632 7.502-12.992v-81.641c0-5.36-2.86-10.313-7.502-12.992zm-22.498 85.971-54.054 31.195-54.946-31.258v-64.192l54.946-31.257 54.054 31.195z"/></svg>