<svg id="Capa_1" enable-background="new 0 0 512.004 512.004" height="512" viewBox="0 0 512.004 512.004" width="512" xmlns="http://www.w3.org/2000/svg"><path d="m15.002 390h70.865l-25.431 103.418c-1.979 8.045 2.939 16.17 10.984 18.148 8.08 1.986 16.179-2.975 18.148-10.984l27.192-110.582h277.484l27.192 110.582c1.968 8.004 10.063 12.971 18.148 10.984 8.044-1.978 12.962-10.103 10.984-18.148l-25.431-103.418h71.865c8.284 0 15-6.716 15-15v-60c0-8.284-6.716-15-15-15h-15v-285c0-8.284-6.716-15-15-15h-422c-8.284 0-15 6.716-15 15v285h-15c-8.284 0-15 6.716-15 15v60c0 8.284 6.716 15 15 15zm45-360h392v270h-31v-45c0-8.284-6.716-15-15-15h-90c-8.284 0-15 6.716-15 15v45h-241zm331 240v30h-60v-30zm-361 60h452v30h-452z"/><path d="m165.002 150h-15v-45c0-8.284-6.716-15-15-15h-30c-8.284 0-15 6.716-15 15s6.716 15 15 15h15v30h-15c-8.284 0-15 6.716-15 15s6.716 15 15 15h60c8.284 0 15-6.716 15-15s-6.716-15-15-15z"/><path d="m346.002 150c-8.284 0-15 6.716-15 15s6.716 15 15 15h60c8.284 0 15-6.716 15-15s-6.716-15-15-15h-15v-45c0-8.284-6.716-15-15-15h-30c-8.284 0-15 6.716-15 15s6.716 15 15 15h15v30z"/><path d="m286.002 120h-15v-15c0-8.284-6.716-15-15-15s-15 6.716-15 15v15h-15c-8.284 0-15 6.716-15 15s6.716 15 15 15h15v15c0 8.284 6.716 15 15 15s15-6.716 15-15v-15h15c8.284 0 15-6.716 15-15s-6.716-15-15-15z"/></svg>