<svg id="Capa_1" enable-background="new 0 0 512 512" height="512" viewBox="0 0 512 512" width="512" xmlns="http://www.w3.org/2000/svg"><path d="m452 241h-69.072c5.123-8.833 8.072-19.075 8.072-30v-151c0-33.084-26.916-60-60-60h-150c-33.084 0-60 26.916-60 60v151c0 10.925 2.949 21.167 8.072 30h-69.072c-33.084 0-60 26.916-60 60v151c0 33.084 26.916 60 60 60h151c17.908 0 33.997-7.896 45-20.377 11.003 12.481 27.092 20.377 45 20.377h151c33.084 0 60-26.916 60-60v-151c0-33.084-26.916-60-60-60zm-301-30v-151c0-16.542 13.458-30 30-30h150c16.542 0 30 13.458 30 30v151c0 16.542-13.458 30-30 30h-30c-17.908 0-33.997 7.896-45 20.377-11.003-12.481-27.092-20.377-45-20.377h-30c-16.542 0-30-13.458-30-30zm60 271h-151c-16.542 0-30-13.458-30-30v-151c0-16.542 13.458-30 30-30h151c16.542 0 30 13.458 30 30v151c0 16.542-13.458 30-30 30zm271-30c0 16.542-13.458 30-30 30h-151c-16.542 0-30-13.458-30-30v-151c0-16.542 13.458-30 30-30h151c16.542 0 30 13.458 30 30z"/><path d="m149.417 309.292c-5.516-11.033-21.312-11.042-26.833 0l-60 120c-3.705 7.41-.701 16.419 6.708 20.125 7.409 3.705 16.42.701 20.125-6.708l10.854-21.709h71.459l10.854 21.708c3.71 7.421 12.726 10.409 20.125 6.708 7.41-3.705 10.413-12.715 6.708-20.125zm-34.146 81.708 20.729-41.459 20.729 41.459z"/><path d="m391 301h-60c-8.284 0-15 6.716-15 15v120c0 8.284 6.716 15 15 15h60c38.795 0 59.402-46.109 33.514-75 25.888-28.891 5.281-75-33.514-75zm0 120h-45v-30h45c8.271 0 15 6.729 15 15s-6.729 15-15 15zm0-60h-45v-30h45c8.271 0 15 6.729 15 15s-6.729 15-15 15z"/><path d="m271 211c24.813 0 45-20.187 45-45 0-8.284-6.716-15-15-15s-15 6.716-15 15c0 8.271-6.729 15-15 15h-30c-8.271 0-15-6.729-15-15v-60c0-8.271 6.729-15 15-15h30c8.271 0 15 6.729 15 15 0 8.284 6.716 15 15 15s15-6.716 15-15c0-24.813-20.187-45-45-45h-30c-24.813 0-45 20.187-45 45v60c0 24.813 20.187 45 45 45z"/></svg>